<?xml version='1.0' encoding='utf-8'?>
<!-- Generator: Adobe Illustrator 26.0.3, SVG Export Plug-In . SVG Version: 6.00 Build 0)  -->
<svg xmlns="http://www.w3.org/2000/svg" id="Layer_1" width="1.06468in" x="0px" gorn="0" xml:space="preserve" xmlns:xml="http://www.w3.org/XML/1998/namespace"  version="1.1" y="0px" height="0.7in" viewBox="0 0 76.6569 50.4" enable-background="new 0 0 76.6569 50.4">
    <desc>
        <referenceFile>MCP4725 rev C_breadboard.svg</referenceFile>
    </desc>
    <desc >Fritzing breadboard generated by brd2svg</desc>
    <g >
        <path d="M2.2405,7.2c0-3.9764,3.2235-7.2,7.2-7.2c0,0,0,0,0,0h57.6c3.9764,0,7.2,3.2236,7.2,7.2v36c0,3.9764-3.2235,7.2-7.2,7.2h-57.6c-3.9764,0-7.2-3.2235-7.2-7.2c0,0,0,0,0,0V7.2 M18.8232,43.2c0,0.7828,0.6346,1.4173,1.4173,1.4173c0.7828,0,1.4173-0.6346,1.4173-1.4173s-0.6346-1.4173-1.4173-1.4173C19.4577,41.7827,18.8232,42.4172,18.8232,43.2z M26.0232,43.2c0,0.7828,0.6346,1.4173,1.4173,1.4173c0.7828,0,1.4173-0.6346,1.4173-1.4173s-0.6346-1.4173-1.4173-1.4173C26.6577,41.7827,26.0232,42.4172,26.0232,43.2z M33.2232,43.2c0,0.7828,0.6346,1.4173,1.4173,1.4173s1.4173-0.6346,1.4173-1.4173s-0.6346-1.4173-1.4173-1.4173C33.8577,41.7827,33.2232,42.4172,33.2232,43.2z M40.4232,43.2c0,0.7828,0.6346,1.4173,1.4173,1.4173s1.4173-0.6346,1.4173-1.4173s-0.6346-1.4173-1.4173-1.4173S40.4232,42.4172,40.4232,43.2z M47.6232,43.2c0,0.7828,0.6346,1.4173,1.4173,1.4173c0.7828,0,1.4173-0.6346,1.4173-1.4173s-0.6346-1.4173-1.4173-1.4173S47.6232,42.4172,47.6232,43.2z M54.8232,43.2c0,0.7828,0.6346,1.4173,1.4173,1.4173c0.7828,0,1.4173-0.6346,1.4173-1.4173s-0.6346-1.4173-1.4173-1.4173S54.8232,42.4172,54.8232,43.2z M5.8971,7.2c-0.0033,1.9569,1.5804,3.546,3.5373,3.5493s3.546-1.5804,3.5493-3.5373c0-0.004,0-0.008,0-0.012c0.0033-1.9569-1.5804-3.546-3.5374-3.5493c-1.9569-0.0033-3.546,1.5804-3.5493,3.5374C5.8971,7.1921,5.8971,7.196,5.8971,7.2z M63.4972,7.2c-0.0034,1.9569,1.5802,3.5461,3.5371,3.5495s3.5461-1.5802,3.5495-3.5371c0-0.0041,0-0.0083,0-0.0124c0.0034-1.9569-1.5802-3.5461-3.5371-3.5495c-1.9569-0.0034-3.5461,1.5802-3.5495,3.5371C63.4971,7.1917,63.4971,7.1958,63.4972,7.2z M5.8971,43.2c-0.0033,1.9569,1.5804,3.546,3.5373,3.5493c1.9569,0.0033,3.546-1.5804,3.5493-3.5373c0-0.004,0-0.008,0-0.012c0.0033-1.9569-1.5804-3.546-3.5374-3.5493s-3.546,1.5804-3.5493,3.5374C5.8971,43.1921,5.8971,43.196,5.8971,43.2z M63.4972,43.2c-0.0034,1.9569,1.5802,3.5461,3.5371,3.5495s3.5461-1.5802,3.5495-3.5371c0-0.0042,0-0.0083,0-0.0125c0.0034-1.9569-1.5802-3.5461-3.5371-3.5495c-1.9569-0.0034-3.5461,1.5802-3.5495,3.5371C63.4971,43.1917,63.4971,43.1959,63.4972,43.2z M31.7208,10.8c0,0.7828,0.6346,1.4173,1.4173,1.4173c0.7828,0,1.4173-0.6346,1.4173-1.4173c0-0.7828-0.6346-1.4173-1.4173-1.4173C32.3553,9.3827,31.7208,10.0172,31.7208,10.8z M41.6421,10.8c0,0.7828,0.6346,1.4173,1.4173,1.4173c0.7828,0,1.4173-0.6346,1.4173-1.4173c0-0.7828-0.6346-1.4173-1.4173-1.4173S41.6421,10.0172,41.6421,10.8z" />
        <g >
            <g transform="matrix(1 0 0 1 16.6174 49.5504)" >
                <text font-family="'OCRA'" font-size="2.67264" fill="#FFFFFF" >VIN</text>
            </g>
        </g>
        <g >
            <g transform="matrix(1 0 0 1 23.8174 40.1904)" >
                <text font-family="'OCRA'" font-size="2.67264" fill="#FFFFFF" >GND</text>
            </g>
        </g>
        <g >
            <g transform="matrix(1 0 0 1 31.0174 49.5504)" >
                <text font-family="'OCRA'" font-size="2.67264" fill="#FFFFFF" >SCL</text>
            </g>
        </g>
        <g >
            <g transform="matrix(1 0 0 1 38.2174 40.1904)" >
                <text font-family="'OCRA'" font-size="2.67264" fill="#FFFFFF" >SDA</text>
            </g>
        </g>
        <g >
            <g transform="matrix(1 0 0 1 46.9851 49.5504)" >
                <text font-family="'OCRA'" font-size="2.67264" fill="#FFFFFF" >A0</text>
            </g>
        </g>
        <g >
            <g transform="matrix(1 0 0 1 51.4097 40.1904)" >
                <text font-family="'OCRA'" font-size="2.67264" fill="#FFFFFF" >VOUT</text>
            </g>
        </g>
        <g >
            <g transform="matrix(1, 0, 0, 1, 0, -2.088)" >
                <g >
                    <g transform="matrix(1 0 0 1 17.9856 10.3186)" >
                        <text font-family="'OCRA'" font-size="3.3408" fill="#FFFFFF" >MCP</text>
                    </g>
                </g>
            </g>
            <g transform="matrix(1, 0, 0, 1, 0, 2.088)" >
                <g >
                    <g transform="matrix(1 0 0 1 14.9664 10.3186)" >
                        <text font-family="'OCRA'" font-size="3.3408" fill="#FFFFFF" >4725</text>
                    </g>
                </g>
            </g>
        </g>
        <g >
            <g transform="matrix(1, 0, 0, 1, 0, -4.00896)" >
                <g >
                    <g transform="matrix(1 0 0 1 48.8605 10.6445)" >
                        <text font-family="'OCRA'" font-size="3.2072" fill="#FFFFFF" >12</text>
                    </g>
                </g>
            </g>
            <g transform="translate(0,0)" >
                <g >
                    <g transform="matrix(1 0 0 1 48.8605 10.6445)" >
                        <text font-family="'OCRA'" font-size="3.2072" fill="#FFFFFF" >bit</text>
                    </g>
                </g>
            </g>
            <g transform="matrix(1, 0, 0, 1, 0, 4.00896)" >
                <g >
                    <g transform="matrix(1 0 0 1 48.8605 10.6445)" >
                        <text font-family="'OCRA'" font-size="3.2072" fill="#FFFFFF" >DAC</text>
                    </g>
                </g>
            </g>
        </g>
        <g >
            <g transform="matrix(1 0 0 1 2.9605 15.3)" >
                <text font-family="'OCRA'" font-size="2.67264" fill="#FFFFFF" >on</text>
            </g>
        </g>
        <g >
            <g transform="matrix(1, 0, 0, 1, 0, -1.58688)" >
                <g >
                    <g transform="matrix(1 0 0 1 29.062 18.3269)" >
                        <text font-family="'OCRA'" font-size="2.53904" fill="#FFFFFF" >optional</text>
                    </g>
                </g>
            </g>
            <g transform="matrix(1, 0, 0, 1, 0, 1.58688)" >
                <g >
                    <g transform="matrix(1 0 0 1 29.062 18.3269)" >
                        <text font-family="'OCRA'" font-size="2.53904" fill="#FFFFFF" >terminal</text>
                    </g>
                </g>
            </g>
        </g>
        <g >
            <g >
                <line stroke="#FFFFFF" x1="22.7605" y1="28.62" x2="25.6405" fill="none"  y2="28.62" stroke-width="0.864" stroke-linecap="round"/>
            </g>
        </g>
        <g >
            <g >
                <line stroke="#FFFFFF" x1="27.7466" y1="29.34" x2="30.0144" fill="none"  y2="29.34" stroke-width="0.864" stroke-linecap="round"/>
            </g>
        </g>
        <g >
            <g >
                <line stroke="#FFFFFF" x1="67.7747" y1="33.7039" x2="60.4046" fill="none"  y2="33.7039" stroke-width="0.432" stroke-linecap="round"/>
                <line stroke="#FFFFFF" x1="60.4046" y1="33.7039" x2="60.4046" fill="none"  y2="30.5858" stroke-width="0.432" stroke-linecap="round"/>
                <line stroke="#FFFFFF" x1="60.4046" y1="19.8142" x2="60.4046" fill="none"  y2="16.4126" stroke-width="0.432" stroke-linecap="round"/>
                <line stroke="#FFFFFF" x1="60.4046" y1="16.4126" x2="67.7747" fill="none"  y2="16.4126" stroke-width="0.432" stroke-linecap="round"/>
                <line stroke="#FFFFFF" x1="72.5936" y1="31.1527" x2="72.5936" fill="none"  y2="19.2473" stroke-width="0.432" stroke-linecap="round"/>
            </g>
        </g>
        <g >
            <g >
                <line stroke="#FFFFFF" x1="8.8863" y1="16.6961" x2="16.2564" fill="none"  y2="16.6961" stroke-width="0.432" stroke-linecap="round"/>
                <line stroke="#FFFFFF" x1="16.2564" y1="16.6961" x2="16.2564" fill="none"  y2="19.8142" stroke-width="0.432" stroke-linecap="round"/>
                <line stroke="#FFFFFF" x1="16.2564" y1="30.5858" x2="16.2564" fill="none"  y2="33.9874" stroke-width="0.432" stroke-linecap="round"/>
                <line stroke="#FFFFFF" x1="16.2564" y1="33.9874" x2="8.8863" fill="none"  y2="33.9874" stroke-width="0.432" stroke-linecap="round"/>
                <line stroke="#FFFFFF" x1="4.0674" y1="19.2473" x2="4.0674" fill="none"  y2="31.1527" stroke-width="0.432" stroke-linecap="round"/>
            </g>
        </g>
        <g >
            <g >
                <g >
                    <path stroke="#FFFFFF" d="M12.6445,14.94l0.9-0.72v1.44L12.6445,14.94" fill="none"  stroke-width="0.432" stroke-linecap="round"/>
                </g>
                <g transform="matrix(0, -1, 1, 0, 10.224, 14.94)" >
                    <g >
                        <g transform="matrix(-2.535182e-06 -1 1 -2.535182e-06 -2.2405 2.2405)" >
                            <rect width="0.36" x="-0.18" fill="#FFFFFF"  y="1.1605" height="2.16"/>
                        </g>
                    </g>
                </g>
            </g>
        </g>
        <g >
            <g >
                <line stroke="#FFFFFF" x1="47.772" y1="19.9942" x2="55.709" fill="none"  y2="19.9942" stroke-width="0.576" stroke-linecap="round"/>
                <line stroke="#FFFFFF" x1="55.709" y1="30.7658" x2="47.772" fill="none"  y2="30.7658" stroke-width="0.576" stroke-linecap="round"/>
            </g>
        </g>
        <g >
            <g >
                <line stroke="#FFFFFF" x1="43.8653" y1="23.4" x2="41.6154" fill="none"  y2="23.4" stroke-width="0.864" stroke-linecap="round"/>
                <line stroke="#FFFFFF" x1="42.7405" y1="22.2752" x2="42.7405" fill="none"  y2="24.5248" stroke-width="0.864" stroke-linecap="round"/>
                <circle stroke="#FFFFFF" cy="23.4" r="2.2158" fill="none"  stroke-width="0.576" cx="42.7405"/>
            </g>
        </g>
        <g >
            <g >
                <line stroke="#FFFFFF" x1="34.1453" y1="23.58" x2="31.8954" fill="none"  y2="23.58" stroke-width="0.864" stroke-linecap="round"/>
                <circle stroke="#FFFFFF" cy="23.58" r="2.2158" fill="none"  stroke-width="0.576" cx="33.0205"/>
            </g>
        </g>
        <g >
            <g >
                <circle stroke="#FFFFFF" cy="7.2" r="5.6693" fill="none"  stroke-width="0.576" cx="9.4405"/>
            </g>
        </g>
        <g >
            <g >
                <circle stroke="#FFFFFF" cy="7.2" r="5.6693" fill="none"  stroke-width="0.576" cx="67.0405"/>
            </g>
        </g>
        <g >
            <g >
                <circle stroke="#FFFFFF" cy="43.2" r="5.6693" fill="none"  stroke-width="0.576" cx="9.4405"/>
            </g>
        </g>
        <g >
            <g >
                <circle stroke="#FFFFFF" cy="43.2" r="5.6693" fill="none"  stroke-width="0.576" cx="67.0405"/>
            </g>
        </g>
        <g >
            <g >
                <line stroke="#FFFFFF" x1="40.3282" y1="26.4897" x2="35.7928" fill="none"  y2="26.4897" stroke-width="0.576" stroke-linecap="round"/>
                <line stroke="#FFFFFF" x1="35.7928" y1="34.7103" x2="40.3282" fill="none"  y2="34.7103" stroke-width="0.576" stroke-linecap="round"/>
                <circle stroke="#FFFFFF" cy="27.9071" r="0.2835" fill="none"  stroke-width="0.576" cx="37.0683"/>
            </g>
        </g>
        <g >
            <g >
                <line stroke="#FFFFFF" x1="47.8783" y1="20.4378" x2="47.8783" fill="none"  y2="4.5638" stroke-width="0.576" stroke-linecap="round"/>
                <line stroke="#FFFFFF" x1="47.8783" y1="4.5638" x2="47.8783" fill="none"  y2="0.5953" stroke-width="0.576" stroke-linecap="round"/>
                <line stroke="#FFFFFF" x1="47.8783" y1="0.5953" x2="28.0358" fill="none"  y2="0.5953" stroke-width="0.576" stroke-linecap="round"/>
                <line stroke="#FFFFFF" x1="28.0358" y1="0.5953" x2="28.0358" fill="none"  y2="4.5638" stroke-width="0.576" stroke-linecap="round"/>
                <line stroke="#FFFFFF" x1="28.0358" y1="4.5638" x2="28.0358" fill="none"  y2="20.4378" stroke-width="0.576" stroke-linecap="round"/>
                <line stroke="#FFFFFF" x1="28.0358" y1="20.4378" x2="47.8783" fill="none"  y2="20.4378" stroke-width="0.576" stroke-linecap="round"/>
                <line stroke="#FFFFFF" x1="47.8783" y1="4.5638" x2="28.0358" fill="none"  y2="4.5638" stroke-width="0.576" stroke-linecap="round"/>
            </g>
        </g>
        <g transform="matrix(0, -1, 1, 0, -9.35294, 53.2729)" >
            <g >
                <g transform="matrix(-2.535182e-06 -1 1 -2.535182e-06 -11.5932 55.5135)" >
                    <rect id="connector5pin" width="4.252" x="19.8341" fill="#9A916C" gorn="0.1.25.0.0.0"  y="31.7959" height="3.515"/>
                </g>
            </g>
        </g>
        <g transform="matrix(0, -1, 1, 0, -3.96708, 47.8871)" >
            <g >
                <g transform="matrix(-2.535182e-06 -1 1 -2.535182e-06 -6.2074 50.1277)" >
                    <rect id="connector6pin" width="4.252" x="19.8341" fill="#9A916C" gorn="0.1.26.0.0.0"  y="26.4101" height="3.515"/>
                </g>
            </g>
        </g>
        <g transform="matrix(0, -1, 1, 0, -5.10945, 58.3895)" >
            <g >
                <g transform="matrix(-2.535182e-06 -1 1 -2.535182e-06 -7.3499 60.6301)" >
                    <rect id="connector7pin" width="2.8346" x="25.2227" fill="#9A916C" gorn="0.1.27.0.0.0"  y="32.4664" height="3.0472"/>
                </g>
            </g>
        </g>
        <g transform="matrix(0, -1, 1, 0, -0.290551, 53.5705)" >
            <g >
                <g transform="matrix(-2.535182e-06 -1 1 -2.535182e-06 -2.5309 55.8111)" >
                    <rect id="connector8pin" width="2.8347" x="25.2227" fill="#9A916C" gorn="0.1.28.0.0.0"  y="27.6474" height="3.0472"/>
                </g>
            </g>
        </g>
        <g transform="matrix(-1, 0, 0, -1, 114.628, 58.9039)" >
            <g >
                <rect width="4.3937" x="52.8764" fill="#9A916C" gorn="0.1.29.0.0"  y="28.6016" height="1.7008"/>
            </g>
        </g>
        <g transform="matrix(-1, 0, 0, -1, 114.628, 53.2346)" >
            <g >
                <rect width="4.3937" x="52.8764" fill="#9A916C" gorn="0.1.30.0.0"  y="25.7669" height="1.7008"/>
            </g>
        </g>
        <g transform="matrix(-1, 0, 0, -1, 114.628, 47.5654)" >
            <g >
                <rect width="4.3937" x="52.8764" fill="#9A916C" gorn="0.1.31.0.0"  y="22.9323" height="1.7008"/>
            </g>
        </g>
        <g transform="matrix(-1, 0, 0, -1, 114.628, 41.8961)" >
            <g >
                <rect width="4.3937" x="52.8764" fill="#9A916C" gorn="0.1.32.0.0"  y="20.0976" height="1.7008"/>
            </g>
        </g>
        <g transform="matrix(-1, 0, 0, -1, 136.737, 66.274)" >
            <g >
                <rect id="connector13pin" width="5.1024" x="63.5771" fill="#9A916C" gorn="0.1.33.0.0"  y="31.4362" height="3.4016"/>
            </g>
        </g>
        <g transform="matrix(-1, 0, 0, -1, 136.737, 34.526)" >
            <g >
                <rect id="connector14pin" width="5.1024" x="63.5771" fill="#9A916C" gorn="0.1.34.0.0"  y="15.5622" height="3.4016"/>
            </g>
        </g>
        <rect width="4.3937" x="14.91" fill="#9A916C" gorn="0.1.35"  y="20.0976" height="1.7008"/>
        <rect width="4.3937" x="14.91" fill="#9A916C" gorn="0.1.36"  y="22.9323" height="1.7008"/>
        <rect width="4.3937" x="14.91" fill="#9A916C" gorn="0.1.37"  y="25.7669" height="1.7008"/>
        <rect width="4.3937" x="14.91" fill="#9A916C" gorn="0.1.38"  y="28.6016" height="1.7008"/>
        <rect id="connector19pin" width="5.1024" x="3.5005" fill="#9A916C" gorn="0.1.39"  y="15.5622" height="3.4016"/>
        <rect id="connector20pin" width="5.1024" x="3.5005" fill="#9A916C" gorn="0.1.40"  y="31.4362" height="3.4016"/>
        <g transform="matrix(0, -1, 1, 0, -2.01401, 27.866)" >
            <g >
                <g transform="matrix(-2.535182e-06 -1 1 -2.535182e-06 -4.2543 30.1065)" >
                    <rect id="connector21pin" width="2.2677" x="11.7922" fill="#9A916C" gorn="0.1.41.0.0.0"  y="16.0466" height="2.2677"/>
                </g>
            </g>
        </g>
        <g transform="matrix(0, -1, 1, 0, -6.26599, 23.614)" >
            <g >
                <g transform="matrix(-2.535182e-06 -1 1 -2.535182e-06 -8.5064 25.8544)" >
                    <rect id="connector22pin" width="2.2677" x="7.5401" fill="#9A916C" gorn="0.1.42.0.0.0"  y="16.0466" height="2.2677"/>
                </g>
            </g>
        </g>
        <path id="connector23pin" d="M17.3605,35.6627L17.3605,35.6627c0.7828,0,1.4173,0.6346,1.4173,1.4173v0c0,0.7828-0.6346,1.4173-1.4173,1.4173h0c-0.7828,0-1.4173-0.6346-1.4173-1.4173v0C15.9432,36.2973,16.5777,35.6627,17.3605,35.6627z" fill="#9A916C" gorn="0.1.43" />
        <path id="connector24pin" d="M58.5805,2.0027L58.5805,2.0027c0.7828,0,1.4173,0.6346,1.4173,1.4173v0c0,0.7828-0.6346,1.4173-1.4173,1.4173h0c-0.7828,0-1.4173-0.6346-1.4173-1.4173v0C57.1632,2.6372,57.7977,2.0027,58.5805,2.0027z" fill="#9A916C" gorn="0.1.44" />
        <circle stroke="#9A916C" id="connector25pin" cy="43.2" r="1.9687" fill="none" gorn="0.1.45"  stroke-width="1.1027" cx="20.2405"/>
        <circle stroke="#9A916C" id="connector26pin" cy="43.2" r="1.9687" fill="none" gorn="0.1.46"  stroke-width="1.1027" cx="27.4405"/>
        <circle stroke="#9A916C" id="connector27pin" cy="43.2" r="1.9687" fill="none" gorn="0.1.47"  stroke-width="1.1027" cx="34.6405"/>
        <circle stroke="#9A916C" id="connector28pin" cy="43.2" r="1.9687" fill="none" gorn="0.1.48"  stroke-width="1.1027" cx="41.8405"/>
        <circle stroke="#9A916C" id="connector29pin" cy="43.2" r="1.9687" fill="none" gorn="0.1.49"  stroke-width="1.1027" cx="49.0405"/>
        <circle stroke="#9A916C" id="connector30pin" cy="43.2" r="1.9687" fill="none" gorn="0.1.50"  stroke-width="1.1027" cx="56.2405"/>
        <g transform="matrix(0, -1, 1, 0, 22.8444, 80.9748)" >
            <g >
                <g transform="matrix(-2.535182e-06 -1 1 -2.535182e-06 20.604 83.215)" >
                    <rect id="connector31pin" width="2.5512" x="50.6338" fill="#9A916C" gorn="0.1.51.0.0.0"  y="30.6677" height="1.2756"/>
                </g>
            </g>
        </g>
        <g transform="matrix(0, -1, 1, 0, 25.3956, 78.4231)" >
            <g >
                <g transform="matrix(-2.535182e-06 -1 1 -2.535182e-06 23.1553 80.6637)" >
                    <rect id="connector32pin" width="2.5512" x="50.6338" fill="#9A916C" gorn="0.1.52.0.0.0"  y="28.1164" height="1.2756"/>
                </g>
            </g>
        </g>
        <g transform="matrix(0, -1, 1, 0, 27.6633, 76.1558)" >
            <g >
                <g transform="matrix(-2.535182e-06 -1 1 -2.535182e-06 25.423 78.396)" >
                    <rect id="connector33pin" width="2.5512" x="50.6338" fill="#9A916C" gorn="0.1.53.0.0.0"  y="25.8488" height="1.2756"/>
                </g>
            </g>
        </g>
        <g transform="matrix(0, -1, 1, 0, 30.2145, 73.6042)" >
            <g >
                <g transform="matrix(-2.535182e-06 -1 1 -2.535182e-06 27.9742 75.8448)" >
                    <rect id="connector34pin" width="2.5512" x="50.6338" fill="#9A916C" gorn="0.1.54.0.0.0"  y="23.2976" height="1.2756"/>
                </g>
            </g>
        </g>
        <g transform="matrix(0, -1, 1, 0, 25.3956, 68.7855)" >
            <g >
                <g transform="matrix(-2.535182e-06 -1 1 -2.535182e-06 23.1553 71.0259)" >
                    <rect id="connector35pin" width="2.5512" x="45.8149" fill="#9A916C" gorn="0.1.55.0.0.0"  y="23.2976" height="1.2756"/>
                </g>
            </g>
        </g>
        <g transform="matrix(0, -1, 1, 0, 22.8444, 71.3367)" >
            <g >
                <g transform="matrix(-2.535182e-06 -1 1 -2.535182e-06 20.6041 73.5771)" >
                    <rect id="connector36pin" width="2.5512" x="45.8149" fill="#9A916C" gorn="0.1.56.0.0.0"  y="25.8488" height="1.2756"/>
                </g>
            </g>
        </g>
        <g transform="matrix(0, -1, 1, 0, 20.5767, 73.6042)" >
            <g >
                <g transform="matrix(-2.535182e-06 -1 1 -2.535182e-06 18.3364 75.8448)" >
                    <rect id="connector37pin" width="2.5512" x="45.8149" fill="#9A916C" gorn="0.1.57.0.0.0"  y="28.1164" height="1.2756"/>
                </g>
            </g>
        </g>
        <g transform="matrix(0, -1, 1, 0, 18.0255, 76.1558)" >
            <g >
                <g transform="matrix(-2.535182e-06 -1 1 -2.535182e-06 15.7851 78.3961)" >
                    <rect id="connector38pin" width="2.5512" x="45.8149" fill="#9A916C" gorn="0.1.58.0.0.0"  y="30.6677" height="1.2756"/>
                </g>
            </g>
        </g>
        <circle stroke="#9A916C" id="connector39pin" cy="7.2" r="4.2633" fill="none" gorn="0.1.59"  stroke-width="1.44" cx="9.4405"/>
        <circle stroke="#9A916C" id="connector40pin" cy="7.2" r="4.2633" fill="none" gorn="0.1.60"  stroke-width="1.44" cx="67.0405"/>
        <circle stroke="#9A916C" id="connector41pin" cy="43.2" r="4.2633" fill="none" gorn="0.1.61"  stroke-width="1.44" cx="9.4405"/>
        <circle stroke="#9A916C" id="connector42pin" cy="43.2" r="4.2633" fill="none" gorn="0.1.62"  stroke-width="1.44" cx="67.0405"/>
        <g transform="matrix(0, 1, -1, 0, 60.042, -4.22788)" >
            <g >
                <g transform="matrix(2.535182e-06 1 -1 2.535182e-06 57.8015 -6.4684)" >
                    <rect id="connector43pin" width="3.4016" x="30.4341" fill="#9A916C" gorn="0.1.63.0.0.0"  y="24.8871" height="1.5591"/>
                </g>
            </g>
        </g>
        <g transform="matrix(0, 1, -1, 0, 62.735, -1.53496)" >
            <g >
                <g transform="matrix(2.535182e-06 1 -1 2.535182e-06 60.4944 -3.7755)" >
                    <rect id="connector44pin" width="3.4016" x="30.4341" fill="#9A916C" gorn="0.1.64.0.0.0"  y="27.58" height="1.5591"/>
                </g>
            </g>
        </g>
        <g transform="matrix(0, 1, -1, 0, 65.4278, 1.15795)" >
            <g >
                <g transform="matrix(2.535182e-06 1 -1 2.535182e-06 63.1874 -1.0825)" >
                    <rect id="connector45pin" width="3.4016" x="30.4341" fill="#9A916C" gorn="0.1.65.0.0.0"  y="30.273" height="1.5591"/>
                </g>
            </g>
        </g>
        <g transform="matrix(0, 1, -1, 0, 72.7978, -6.21212)" >
            <g >
                <g transform="matrix(2.535182e-06 1 -1 2.535182e-06 70.5575 -8.4526)" >
                    <rect id="connector46pin" width="3.4016" x="37.8042" fill="#9A916C" gorn="0.1.66.0.0.0"  y="30.273" height="1.5591"/>
                </g>
            </g>
        </g>
        <g transform="matrix(0, 1, -1, 0, 70.105, -8.90503)" >
            <g >
                <g transform="matrix(2.535182e-06 1 -1 2.535182e-06 67.8645 -11.1456)" >
                    <rect id="connector47pin" width="3.4016" x="37.8042" fill="#9A916C" gorn="0.1.67.0.0.0"  y="27.58" height="1.5591"/>
                </g>
            </g>
        </g>
        <g transform="matrix(0, 1, -1, 0, 67.4122, -11.598)" >
            <g >
                <g transform="matrix(2.535182e-06 1 -1 2.535182e-06 65.1716 -13.8385)" >
                    <rect id="connector48pin" width="3.4016" x="37.8042" fill="#9A916C" gorn="0.1.68.0.0.0"  y="24.8871" height="1.5591"/>
                </g>
            </g>
        </g>
        <circle stroke="#9A916C" cy="10.8" r="2.2567" fill="none" gorn="0.1.69"  stroke-width="1.6787" cx="33.1381"/>
        <circle stroke="#9A916C" cy="10.8" r="2.2567" fill="none" gorn="0.1.70"  stroke-width="1.6787" cx="43.0594"/>
        <g transform="matrix(1, 0, 0, 1, 19.1255, 26.8485)" >
            <g id="_x30_805-cap" gorn="0.1.71.0" >
                <g transform="matrix(0, -1, 1, 0, 1.063, 4.606)" >
                    <g >
                        <path d="M5.386,5.7835H0.283C0.127,5.7835,0,5.6565,0,5.5005v-2.977c0-0.156,0.127-0.283,0.283-0.283h5.102c0.157,0,0.283,0.127,0.283,0.283v2.977C5.669,5.6565,5.542,5.7835,5.386,5.7835z" fill="#DCDCDC" />
                        <g transform="matrix(-2.535182e-06 -1 1 -2.535182e-06 -1.1774 6.8465)" >
                            <rect width="3.543" x="1.063" fill="#6E554B"  y="2.2405" height="3.543"/>
                        </g>
                    </g>
                </g>
            </g>
        </g>
        <g transform="matrix(1, 0, 0, 1, 24.3725, 28.206)" >
            <g id="_x30_603-cap" gorn="0.1.72.0" >
                <g transform="matrix(0, -1, 1, 0, 1.1335, 3.4015)" >
                    <g >
                        <path d="M4.245,4.5085H0.29c-0.16,0-0.29-0.13-0.29-0.291v-1.687c0-0.16,0.13-0.29,0.29-0.29h3.955c0.16,0,0.29,0.13,0.29,0.29v1.687C4.535,4.3785,4.405,4.5085,4.245,4.5085z" fill="#DCDCDC" />
                        <g transform="matrix(-2.535182e-06 -1 1 -2.535182e-06 -1.1065 5.6425)" >
                            <rect width="2.268" x="1.134" fill="#6E554B"  y="2.2405" height="2.268"/>
                        </g>
                    </g>
                </g>
            </g>
        </g>
        <g transform="matrix(1, 0, 0, 1, 54.4184, 18.3)" >
            <g id="jst_sh4" gorn="0.1.73.0" >
                <g transform="matrix(0, -1, 1, 0, 1.69999, 15.5)" >
                    <g >
                        <path nodetypes="ccccccccc" id="polygon5" d="M1.6,4.6405h14.2v1.4h1.4v10h-17v-10h1.4L1.6,4.6405z" fill="#666666" gorn="0.1.73.0.0.0.0" />
                        <g transform="matrix(-0.0068 -1 1 -0.0068 4.8569 23.9059)" >
                            <rect id="rect7" width="4.4001" x="12.1004" gorn="0.1.73.0.0.0.1.0"  y="8.8409" height="1.4"/>
                        </g>
                        <g transform="matrix(-0.0068 -1 1 -0.0068 -6.6196 12.7063)" >
                            <rect id="rect9" width="4.4001" x="0.8002" gorn="0.1.73.0.0.0.2.0"  y="8.9405" height="1.4"/>
                        </g>
                        <g transform="matrix(-0.0068 -1 1 -0.0068 7.8069 20.9354)" >
                            <rect id="rect11" width="1.5" x="13.5502" fill="#333333" gorn="0.1.73.0.0.0.3.0"  y="5.8907" height="1.4"/>
                        </g>
                        <g transform="matrix(-0.0068 -1 1 -0.0068 -3.6697 9.7358)" >
                            <rect id="rect13" width="1.5" x="2.2501" fill="#333333" gorn="0.1.73.0.0.0.4.0"  y="5.9903" height="1.4"/>
                        </g>
                        <g transform="matrix(-0.0068 -1 1 -0.0068 8.9475 16.9677)" >
                            <rect id="rect19" width="3.6001" x="11.1001" fill="#DCDCDC" gorn="0.1.73.0.0.0.5.0"  y="3.5404" height="1"/>
                        </g>
                        <g transform="matrix(-0.0068 -1 1 -0.0068 6.1285 14.1673)" >
                            <rect id="rect21" width="3.6001" x="8.2999" fill="#DCDCDC" gorn="0.1.73.0.0.0.6.0"  y="3.5401" height="1"/>
                        </g>
                        <g transform="matrix(-0.0068 -1 1 -0.0068 6.1285 14.1673)" >
                            <rect id="rect4164" width="3.6001" x="8.2999" fill="#DCDCDC" gorn="0.1.73.0.0.0.7.0"  y="3.5401" height="1"/>
                        </g>
                        <g transform="matrix(-0.0068 -1 1 -0.0068 3.2082 11.2676)" >
                            <rect id="rect4188" width="3.6001" x="5.3997" fill="#DCDCDC" gorn="0.1.73.0.0.0.8.0"  y="3.5405" height="1"/>
                        </g>
                        <g transform="matrix(-0.0068 -1 1 -0.0068 0.2899 8.5685)" >
                            <rect id="rect4143" width="3.6001" x="2.6002" fill="#DCDCDC" gorn="0.1.73.0.0.0.9.0"  y="3.6403" height="1"/>
                        </g>
                        <path id="path594" d="M0.2,11.1404c0-2.7,0-4.9,0-5v-0.1h0.7h0.7l0-0.7v-0.7h1.1h1.1v0.3c0,0.2,0,0.5,0,0.7v0.3H4c0.1,0,0.3,0,0.5,0h0.3v-0.7v-0.6h0.9h0.9v0.2c0,0.1,0,0.4,0,0.7v0.4h0.5h0.5l0-0.7v-0.6h0.9h0.9v0.1c0,0.1,0,0.1,0,0.1s0,0.3,0,0.5v0.5h0.5h0.5v-0.7v-0.7h0.9c0.8,0,0.9,0,0.9,0s0,0.3,0,0.6v0.6h0.3c0.2,0,0.4,0,0.5,0h0.2v-0.6v-0.6h1.2h1.2v0.7v0.7h0.7H17v1.7c0,0.9,0,3.2,0,5v3.4h-3.3c-1.8,0-5.6,0-8.5,0h-5.3L0.2,11.1404z M3.7,11.5405c0-0.5,0-4.3,0-4.9v-0.6l-0.7-0.1c-0.4,0-0.7,0-0.7,0s0,4.3,0,5.1v0.7l0.7,0h0.7C3.7,11.8404,3.7,11.5405,3.7,11.5405z M15.1,11.7404c0,0,0-5.5,0-5.7v-0.1h-0.7c-0.4,0-0.7,0-0.7,0s0,1.9,0,4.6v1.2h0.7C14.7,11.7404,15.1,11.7404,15.1,11.7404z" gorn="0.1.73.0.0.0.10" />
                        <path id="path596" d="M2.3,7.3405c0-0.1,0-0.4,0-0.7v-0.6h0.1c0.1,0,0.5,0,1,0h0.4v0.5c0,0.3,0,0.6,0,0.7v0.2H3L2.3,7.3405L2.3,7.3405z" gorn="0.1.73.0.0.0.11" />
                        <path id="path598" d="M13.6,7.1405c0-0.1,0-0.4,0-0.7v-0.6h0.1c0.1,0,0.4,0,0.7,0H15v0.1c0,0.1,0,0.4,0,0.7v0.6h-0.7h-0.7L13.6,7.1405z" gorn="0.1.73.0.0.0.12" />
                        <g transform="matrix(-2.535182e-06 -1 1 -2.535182e-06 -16.4405 20.4405)" >
                            <ellipse id="connector9pin" cy="18.4405" rx="2" ry="2" gorn="0.1.73.0.0.0.13.0"  cx="2"/>
                        </g>
                        <g transform="matrix(-2.535182e-06 -1 1 -2.535182e-06 -11.9404 24.9405)" >
                            <ellipse id="connector10pin" cy="18.4405" rx="2" ry="2" fill="#FF0000" gorn="0.1.73.0.0.0.14.0"  cx="6.5"/>
                        </g>
                        <g transform="matrix(-2.535182e-06 -1 1 -2.535182e-06 -7.3404 29.5405)" >
                            <ellipse id="connector11pin" cy="18.4405" rx="2" ry="2" fill="#0000FF" gorn="0.1.73.0.0.0.15.0"  cx="11.1"/>
                        </g>
                        <g transform="matrix(-2.535182e-06 -1 1 -2.535182e-06 -2.8404 34.0405)" >
                            <ellipse id="connector12pin" cy="18.4405" rx="2" ry="2" fill="#FFFF00" gorn="0.1.73.0.0.0.16.0"  cx="15.6"/>
                        </g>
                    </g>
                </g>
            </g>
        </g>
        <g transform="matrix(1, 0, 0, 1, 0.56157, 18.3)" >
            <g id="jst_sh4_00000029028715345622113050000015109048956318695562_" gorn="0.1.74.0" >
                <g transform="matrix(0, 1, -1, 0, 15.5, -1.69999)" >
                    <g >
                        <path nodetypes="ccccccccc" id="polygon5_00000097459740954062374110000002135886194546302869_" d="M1.6,0.1595h14.2v1.4h1.4v10h-17v-10h1.4L1.6,0.1595z" fill="#666666" gorn="0.1.74.0.0.0.0" />
                        <g transform="matrix(0.0068 1 -1 0.0068 19.2631 -9.2744)" >
                            <rect id="rect7_00000170255201681038381100000003399638979751137705_" width="4.4001" x="12.1004" gorn="0.1.74.0.0.0.1.0"  y="4.36" height="1.4"/>
                        </g>
                        <g transform="matrix(0.0068 1 -1 0.0068 8.1394 2.1243)" >
                            <rect id="rect9_00000008120567558349944770000008818671950215188628_" width="4.4001" x="0.8002" gorn="0.1.74.0.0.0.2.0"  y="4.4596" height="1.4"/>
                        </g>
                        <g transform="matrix(0.0068 1 -1 0.0068 16.3127 -12.2044)" >
                            <rect id="rect11_00000077289814504617356650000008726124447145684113_" width="1.5" x="13.5502" fill="#333333" gorn="0.1.74.0.0.0.3.0"  y="1.4098" height="1.4"/>
                        </g>
                        <g transform="matrix(0.0068 1 -1 0.0068 5.189 -0.8056)" >
                            <rect id="rect13_00000169532742328530934090000017004155076700042659_" width="1.5" x="2.2501" fill="#333333" gorn="0.1.74.0.0.0.4.0"  y="1.5094" height="1.4"/>
                        </g>
                        <g transform="matrix(0.0068 1 -1 0.0068 12.3719 -13.3373)" >
                            <rect id="rect19_00000049186081117256883870000018276791810968714664_" width="3.6001" x="11.1001" fill="#DCDCDC" gorn="0.1.74.0.0.0.5.0"  y="-0.9405" height="1"/>
                        </g>
                        <g transform="matrix(0.0068 1 -1 0.0068 9.5904 -10.5374)" >
                            <rect id="rect21_00000033344066305453700720000011031770404850081680_" width="3.6001" x="8.2999" fill="#DCDCDC" gorn="0.1.74.0.0.0.6.0"  y="-0.9408" height="1"/>
                        </g>
                        <g transform="matrix(0.0068 1 -1 0.0068 9.5904 -10.5374)" >
                            <rect id="rect4164_00000097487476629023353780000014955567844524908422_" width="3.6001" x="8.2999" fill="#DCDCDC" gorn="0.1.74.0.0.0.7.0"  y="-0.9408" height="1"/>
                        </g>
                        <g transform="matrix(0.0068 1 -1 0.0068 6.7104 -7.6369)" >
                            <rect id="rect4188_00000006706481818245121630000007755464631198424760_" width="3.6001" x="5.3997" fill="#DCDCDC" gorn="0.1.74.0.0.0.8.0"  y="-0.9404" height="1"/>
                        </g>
                        <g transform="matrix(0.0068 1 -1 0.0068 4.0296 -4.7384)" >
                            <rect id="rect4143_00000096764120774405943830000015357614080314452371_" width="3.6001" x="2.6002" fill="#DCDCDC" gorn="0.1.74.0.0.0.9.0"  y="-0.8406" height="1"/>
                        </g>
                        <path id="path594_00000160902870329317402150000003199298526455158191_" d="M0.2,6.6595c0-2.7,0-4.9,0-5v-0.1h0.7h0.7l0-0.7v-0.7h1.1h1.1v0.3c0,0.2,0,0.5,0,0.7v0.3H4c0.1,0,0.3,0,0.5,0h0.3v-0.7v-0.6h0.9h0.9v0.2c0,0.1,0,0.4,0,0.7v0.4h0.5h0.5l0-0.7v-0.6h0.9h0.9v0.1c0,0.1,0,0.1,0,0.1s0,0.3,0,0.5v0.5h0.5h0.5v-0.7v-0.7h0.9c0.8,0,0.9,0,0.9,0s0,0.3,0,0.6v0.6h0.3c0.2,0,0.4,0,0.5,0h0.2v-0.6v-0.6h1.2h1.2v0.7v0.7h0.7H17v1.7c0,0.9,0,3.2,0,5v3.4h-3.3c-1.8,0-5.6,0-8.5,0h-5.3L0.2,6.6595z M3.7,7.0596c0-0.5,0-4.3,0-4.9v-0.6l-0.7-0.1c-0.4,0-0.7,0-0.7,0s0,4.3,0,5.1v0.7l0.7,0h0.7C3.7,7.3595,3.7,7.0596,3.7,7.0596z M15.1,7.2595c0,0,0-5.5,0-5.7v-0.1h-0.7c-0.4,0-0.7,0-0.7,0s0,1.9,0,4.6v1.2h0.7C14.7,7.2595,15.1,7.2595,15.1,7.2595z" gorn="0.1.74.0.0.0.10" />
                        <path id="path596_00000039120145470392835540000016323526629496046731_" d="M2.3,2.8595c0-0.1,0-0.4,0-0.7v-0.6h0.1c0.1,0,0.5,0,1,0h0.4v0.5c0,0.3,0,0.6,0,0.7v0.2H3L2.3,2.8595L2.3,2.8595z" gorn="0.1.74.0.0.0.11" />
                        <path id="path598_00000026143441204075769910000004481506318801938847_" d="M13.6,2.6595c0-0.1,0-0.4,0-0.7v-0.6h0.1c0.1,0,0.4,0,0.7,0H15v0.1c0,0.1,0,0.4,0,0.7v0.6h-0.7h-0.7L13.6,2.6595z" gorn="0.1.74.0.0.0.12" />
                        <g transform="matrix(2.535182e-06 1 -1 2.535182e-06 15.9595 11.9595)" >
                            <ellipse id="connector15pin" cy="13.9595" rx="2" ry="2" gorn="0.1.74.0.0.0.13.0"  cx="2"/>
                        </g>
                        <g transform="matrix(2.535182e-06 1 -1 2.535182e-06 20.4595 7.4595)" >
                            <ellipse id="connector16pin" cy="13.9595" rx="2" ry="2" fill="#FF0000" gorn="0.1.74.0.0.0.14.0"  cx="6.5"/>
                        </g>
                        <g transform="matrix(2.535182e-06 1 -1 2.535182e-06 25.0595 2.8595)" >
                            <ellipse id="connector17pin" cy="13.9595" rx="2" ry="2" fill="#0000FF" gorn="0.1.74.0.0.0.15.0"  cx="11.1"/>
                        </g>
                        <g transform="matrix(2.535182e-06 1 -1 2.535182e-06 29.5595 -1.6405)" >
                            <ellipse id="connector18pin" cy="13.9595" rx="2" ry="2" fill="#FFFF00" gorn="0.1.74.0.0.0.16.0"  cx="15.6"/>
                        </g>
                    </g>
                </g>
            </g>
        </g>
        <g transform="matrix(1, 0, 0, 1, 9.666, 12.6725)" >
            <g id="_x30_603-led-green" gorn="0.1.75.0" >
                <g transform="matrix(0, -1, 1, 0, -1.1335, 3.4015)" >
                    <g >
                        <path d="M2.268,2.5305v3.955c0,0.16-0.13,0.29-0.29,0.29H0.29c-0.16,0-0.29-0.13-0.29-0.29v-3.955c0-0.16,0.13-0.29,0.29-0.29h1.687C2.138,2.2405,2.268,2.3705,2.268,2.5305z" fill="#DCDCDC" />
                        <g transform="matrix(-2.535182e-06 -1 1 -2.535182e-06 -3.374 5.6422)" >
                            <rect width="2.268" x="0.0001" fill="#00FF00"  y="3.3741" height="2.268"/>
                        </g>
                        <circle cy="4.5085" r="0.354" fill="#00B400"  cx="1.134"/>
                    </g>
                </g>
            </g>
        </g>
        <g transform="matrix(1, 0, 0, 1, 44.9645, 23.1125)" >
            <g id="respack_4x0603" gorn="0.1.76.0" >
                <g transform="matrix(0, -1, 1, 0, 2.26799, 6.80299)" >
                    <g >
                        <g >
                            <g transform="matrix(-2.535182e-06 -1 1 -2.535182e-06 -3.5865 5.4295)" >
                                <rect width="4.535" x="-1.346" fill="#DCDCDC"  y="3.5865" height="1.843"/>
                            </g>
                            <g transform="matrix(-2.535182e-06 -1 1 -2.535182e-06 -1.1064 7.9095)" >
                                <rect width="4.535" x="1.134" fill="#DCDCDC"  y="3.7995" height="1.417"/>
                            </g>
                            <g transform="matrix(-2.535182e-06 -1 1 -2.535182e-06 1.1616 10.1775)" >
                                <rect width="4.535" x="3.402" fill="#DCDCDC"  y="3.7995" height="1.417"/>
                            </g>
                            <g transform="matrix(-2.535182e-06 -1 1 -2.535182e-06 3.6416 12.6575)" >
                                <rect width="4.535" x="5.882" fill="#DCDCDC"  y="3.5865" height="1.843"/>
                            </g>
                            <g transform="matrix(-2.535182e-06 -1 1 -2.535182e-06 0.0275 9.0435)" >
                                <rect width="2.835" x="3.118" fill="#303030"  y="-0.0275" height="9.071"/>
                            </g>
                        </g>
                    </g>
                </g>
            </g>
        </g>
        <g transform="matrix(1, 0, 0, 1, 16.5525, 14.934)" >
            <g id="adafruit_3.5mm" gorn="0.1.77.0" >
                <g transform="matrix(0, -1, 1, 0, 0.001476, 9.77854)" >
                    <g >
                        <path d="M11.9263,5.2256c-0.032-0.2-0.141-0.257-0.403-0.341c-0.199-0.064-1.533-0.489-1.533-0.489s-0.93-0.351-1.619,0.146c-0.093,0.066-0.189,0.143-0.286,0.224c0.082-0.097,0.158-0.193,0.224-0.286c0.495-0.69,0.143-1.619,0.143-1.619s-0.427-1.334-0.492-1.533c-0.085-0.262-0.142-0.37-0.342-0.402s-0.288,0.054-0.449,0.277c-0.122,0.17-0.939,1.307-0.939,1.307s-0.621,0.777-0.361,1.586c0.034,0.109,0.077,0.224,0.125,0.341c-0.067-0.108-0.135-0.209-0.203-0.302c-0.503-0.684-1.496-0.636-1.496-0.636s-1.4-0.006-1.61-0.006c-0.275-0.001-0.396,0.02-0.488,0.201c-0.091,0.181-0.037,0.291,0.126,0.513c0.124,0.169,0.953,1.297,0.953,1.297s0.546,0.83,1.395,0.834c0.114,0,0.236-0.005,0.362-0.014c-0.122,0.03-0.24,0.064-0.348,0.1c-0.806,0.267-1.067,1.226-1.067,1.226s-0.438,1.33-0.503,1.529c-0.086,0.261-0.103,0.383,0.04,0.526c0.144,0.143,0.265,0.126,0.526,0.04c0.199-0.065,1.528-0.506,1.528-0.506s0.958-0.263,1.224-1.07c0.036-0.108,0.069-0.225,0.1-0.348c-0.009,0.126-0.014,0.248-0.013,0.362c0.005,0.849,0.836,1.394,0.836,1.394s1.13,0.827,1.298,0.951c0.223,0.162,0.333,0.216,0.514,0.124c0.181-0.092,0.201-0.213,0.2-0.488c-0.001-0.21-0.009-1.61-0.009-1.61s0.047-0.993-0.639-1.495c-0.092-0.067-0.194-0.135-0.301-0.202c0.117,0.047,0.232,0.09,0.34,0.124c0.81,0.258,1.584-0.364,1.584-0.364s1.136-0.819,1.306-0.941C11.8723,5.5146,11.9583,5.4266,11.9263,5.2256z M7.1043,4.1946c0.152,0.024,0.228,0.349,0.169,0.726s-0.231,0.662-0.384,0.638s-0.229-0.349-0.169-0.725C6.7793,4.4566,6.9513,4.1706,7.1043,4.1946z M5.1483,5.1936c0.07-0.138,0.402-0.11,0.742,0.063c0.34,0.173,0.558,0.425,0.488,0.563s-0.402,0.11-0.742-0.063C5.2963,5.5836,5.0783,5.3316,5.1483,5.1936z M6.1793,7.0716c-0.269,0.27-0.577,0.4-0.686,0.291c-0.109-0.109,0.02-0.416,0.29-0.686c0.269-0.27,0.576-0.4,0.686-0.291C6.5783,6.4946,6.4483,6.8016,6.1793,7.0716z M7.6633,7.7046c-0.138,0.07-0.39-0.148-0.563-0.487c-0.174-0.34-0.203-0.673-0.065-0.743s0.39,0.148,0.563,0.487C7.7713,7.3016,7.8003,7.6336,7.6633,7.7046z M8.0203,6.1316c-0.377,0.06-0.701-0.015-0.726-0.168c-0.024-0.153,0.262-0.325,0.638-0.385c0.377-0.06,0.701,0.015,0.726,0.168C8.6823,5.8996,8.3973,6.0716,8.0203,6.1316z" fill="#DCDCDC" />
                    </g>
                </g>
            </g>
        </g>
        <g transform="matrix(1, 0, 0, 1, 31.71, 26.773)" >
            <g id="sot23-6" gorn="0.1.78.0" >
                <g transform="matrix(0, 1, -1, 0, 7.93706, -0.282996)" >
                    <g >
                        <g transform="matrix(2.535182e-06 1 -1 2.535182e-06 3.0036 0.1696)" >
                            <rect id="rect5" width="7.654" x="-2.41" fill="#DCDCDC" gorn="0.1.78.0.0.0.0.0"  y="1.0196" height="1.134"/>
                        </g>
                        <g transform="matrix(2.535182e-06 1 -1 2.535182e-06 8.3895 -5.2164)" >
                            <rect id="rect7_00000073698845672432993060000002858795822824819903_" width="7.654" x="2.976" fill="#DCDCDC" gorn="0.1.78.0.0.0.1.0"  y="1.0196" height="1.134"/>
                        </g>
                        <g transform="matrix(2.535182e-06 1 -1 2.535182e-06 5.6985 -2.5215)" >
                            <rect id="rect9_00000124859087985238113790000011328452955319157381_" width="7.65" x="0.285" fill="#DCDCDC" gorn="0.1.78.0.0.0.2.0"  y="1.0215" height="1.134"/>
                        </g>
                        <g transform="matrix(2.535182e-06 1 -1 2.535182e-06 5.696 -2.524)" >
                            <rect id="rect11_00000050636972975193230790000017714680139495309448_" width="4.535" x="1.8425" fill="#303030" gorn="0.1.78.0.0.0.3.0"  y="-2.524" height="8.22"/>
                        </g>
                    </g>
                </g>
            </g>
        </g>
        <g transform="matrix(1, 0, 0, 1, 24.6613, 0.595259)" >
            <g id="termblock_1x2-3.5mm" gorn="0.1.79.0" >
                <g transform="matrix(-1, 0, 0, -1, 22.1105, 19.8426)" >
                    <g >
                        <rect id="rect3" width="2.2679" x="16.4681" gorn="0.1.79.0.0.0.0"  y="12.1887" height="5.1019"/>
                        <rect id="rect5_00000163751770475651266040000004416328743438668441_" width="2.2679" x="17.6021" gorn="0.1.79.0.0.0.1"  y="1.134" height="2.2679"/>
                        <polygon id="polygon7" points="18.735,0 -1.1065,0 -1.1065,13.6057 -2.2405,13.6057 -2.2405,15.8736 -1.1065,15.8736 -1.1065,18.4246 18.735,18.4246 18.735,15.8736 17.6021,15.8736 17.6021,13.6057 18.735,13.6057 " fill="#333333" gorn="0.1.79.0.0.0.2" />
                        <circle id="circle9" cy="9.9207" r="3.6849" fill="#B4B4B4" gorn="0.1.79.0.0.0.3"  cx="3.8544"/>
                        <circle id="circle11" cy="9.9207" r="3.6849" fill="#B4B4B4" gorn="0.1.79.0.0.0.4"  cx="13.7751"/>
                        <rect id="rect13_00000015316933101747642460000011517269542622354062_" width="7.3698" x="0.3105" gorn="0.1.79.0.0.0.5"  y="1.417" height="2.8349"/>
                        <rect id="rect15" width="7.3698" x="9.0982" gorn="0.1.79.0.0.0.6"  y="1.417" height="2.8349"/>
                        <polygon id="polygon17" points="-1.1065,19.8425 2.4364,19.8425 2.4364,18.0886 5.2714,18.0886 5.2714,19.8425 12.3572,19.8425 12.3572,18.0886 15.1921,18.0886 15.1921,19.8425 18.735,19.8425 18.735,17.0076 -1.1065,17.0076 " gorn="0.1.79.0.0.0.7" />
                        <rect id="connector50pin" width="8.5038" x="-0.3975" fill="#8C8C8C" gorn="0.1.79.0.0.0.8"  y="17.8046" height="1.701"/>
                        <rect id="connector49pin" width="8.5038" x="9.5232" fill="#8C8C8C" gorn="0.1.79.0.0.0.9"  y="17.8046" height="1.701"/>
                        <path id="path23" d="M3.9414,6.9628l-1.643,0.44l0.514,1.917l-2.6329,0.706c0.008,0.282,0.039,0.565,0.115,0.849c0.076,0.284,0.191,0.545,0.325,0.793l2.6329-0.706l0.514,1.917l1.643-0.44l-0.514-1.917l2.6329-0.706c-0.008-0.281-0.039-0.565-0.115-0.848c-0.076-0.283-0.191-0.546-0.325-0.794l-2.6329,0.706L3.9414,6.9628z" fill="#646464" gorn="0.1.79.0.0.0.10" />
                        <path id="path25" d="M11.2572,8.3658l-0.44,1.643l1.917,0.514l-0.706,2.6329c0.248,0.134,0.509,0.249,0.793,0.325c0.284,0.076,0.568,0.107,0.849,0.115l0.706-2.6329l1.917,0.514l0.44-1.643l-1.917-0.514l0.706-2.6329c-0.248-0.134-0.509-0.249-0.793-0.325c-0.284-0.076-0.568-0.107-0.849-0.115l-0.707,2.6329L11.2572,8.3658z" fill="#646464" gorn="0.1.79.0.0.0.11" />
                    </g>
                </g>
            </g>
        </g>
    </g>
</svg>
