<?xml version='1.0' encoding='utf-8'?>
<!-- Generator: Adobe Illustrator 25.3.1, SVG Export Plug-In . SVG Version: 6.00 Build 0)  -->
<svg xmlns="http://www.w3.org/2000/svg" height="0.9in" viewBox="0 0 77.9886 64.8" id="Layer_1" x="0px" xml:space="preserve" width="1.08317in" enable-background="new 0 0 77.9886 64.8"  y="0px" gorn="0" xmlns:xml="http://www.w3.org/XML/1998/namespace" version="1.1">
    <desc>
        <referenceFile>SCD41 CO2 rev B_breadboard.svg</referenceFile>
    </desc>
    <desc >Fritzing breadboard generated by brd2svg</desc>
    <path d="M2.987,7.2c0-3.9764,3.2235-7.2,7.2-7.2c0,0,0,0,0,0h57.6c3.9764,0,7.2,3.2236,7.2,7.2v50.4c0,3.9765-3.2235,7.2-7.2,7.2l0,0h-57.6c-3.9764,0-7.2-3.2235-7.2-7.2c0,0,0,0,0,0V7.2 M23.1697,57.6c0,0.7828,0.6346,1.4173,1.4173,1.4173c0.7828,0,1.4173-0.6346,1.4173-1.4173s-0.6346-1.4173-1.4173-1.4173C23.8042,56.1827,23.1697,56.8172,23.1697,57.6z M30.3697,57.6c0,0.7828,0.6346,1.4173,1.4173,1.4173c0.7828,0,1.4173-0.6346,1.4173-1.4173s-0.6346-1.4173-1.4173-1.4173C31.0042,56.1827,30.3697,56.8172,30.3697,57.6z M37.5697,57.6c0,0.7828,0.6346,1.4173,1.4173,1.4173c0.7828,0,1.4173-0.6346,1.4173-1.4173s-0.6346-1.4173-1.4173-1.4173S37.5697,56.8172,37.5697,57.6z M44.7697,57.6c0,0.7828,0.6346,1.4173,1.4173,1.4173s1.4173-0.6346,1.4173-1.4173s-0.6346-1.4173-1.4173-1.4173S44.7697,56.8172,44.7697,57.6z M51.9697,57.6c0,0.7828,0.6346,1.4173,1.4173,1.4173c0.7828,0,1.4173-0.6346,1.4173-1.4173s-0.6346-1.4173-1.4173-1.4173S51.9697,56.8172,51.9697,57.6z M5.935,7.2c-0.005,2.3483,1.8946,4.256,4.2429,4.261c2.3483,0.005,4.256-1.8946,4.261-4.2429c0-0.006,0-0.0121,0-0.0181c0.0051-2.3483-1.8945-4.2561-4.2428-4.2611S5.9401,4.8333,5.935,7.1816C5.935,7.1878,5.935,7.1939,5.935,7.2z M63.535,7.2c-0.0053,2.3483,1.8941,4.2563,4.2423,4.2616s4.2563-1.894,4.2616-4.2423c0-0.0064,0-0.0128,0-0.0192c0.0048-2.3483-1.8949-4.2559-4.2432-4.2607c-2.3483-0.0048-4.2559,1.8949-4.2607,4.2432C63.535,7.1884,63.535,7.1942,63.535,7.2z M5.935,57.6c-0.005,2.3483,1.8946,4.256,4.2429,4.261c2.3483,0.005,4.256-1.8946,4.261-4.2429c0-0.0061,0-0.0121,0-0.0182c0.0051-2.3483-1.8945-4.2561-4.2428-4.2611s-4.2561,1.8945-4.2611,4.2428C5.935,57.5877,5.935,57.5939,5.935,57.6z M63.535,57.6c-0.0053,2.3483,1.8941,4.2563,4.2423,4.2616c2.3483,0.0053,4.2563-1.8941,4.2616-4.2423c0-0.0064,0-0.0128,0-0.0192c0.0048-2.3483-1.8949-4.2559-4.2432-4.2607c-2.3483-0.0048-4.2559,1.8949-4.2607,4.2432C63.535,57.5884,63.535,57.5942,63.535,57.6z" />
    <g >
        <g transform="matrix(1 0 0 1 21.3239 63.9504)" >
            <text font-family="'OCRA'" fill="#FFFFFF" font-size="2.67264" >VIN</text>
        </g>
    </g>
    <g >
        <g transform="matrix(1 0 0 1 28.5239 54.5904)" >
            <text font-family="'OCRA'" fill="#FFFFFF" font-size="2.67264" >3Vo</text>
        </g>
    </g>
    <g >
        <g transform="matrix(1 0 0 1 35.7239 63.9504)" >
            <text font-family="'OCRA'" fill="#FFFFFF" font-size="2.67264" >GND</text>
        </g>
    </g>
    <g >
        <g transform="matrix(1 0 0 1 42.5639 54.5904)" >
            <text font-family="'OCRA'" fill="#FFFFFF" font-size="2.67264" >SCL</text>
        </g>
    </g>
    <g >
        <g transform="matrix(1 0 0 1 50.1239 63.9504)" >
            <text font-family="'OCRA'" fill="#FFFFFF" font-size="2.67264" >SDA</text>
        </g>
    </g>
    <g >
        <g transform="matrix(1 0 0 1 29.1745 5.9544)" >
            <text font-family="'OCRA'" fill="#FFFFFF" font-size="4.34304" >SCD4x</text>
        </g>
    </g>
    <g >
        <g transform="matrix(1, 0, 0, 1, 0, -1.8792)" >
            <g >
                <g transform="matrix(1 0 0 1 27.884 11.9869)" >
                    <text font-family="'OCRA'" fill="#FFFFFF" font-size="3.00672" >CO2/Temp/Hum</text>
                </g>
            </g>
        </g>
        <g transform="matrix(1, 0, 0, 1, 0, 1.8792)" >
            <g >
                <g transform="matrix(1 0 0 1 36.0359 11.9869)" >
                    <text font-family="'OCRA'" fill="#FFFFFF" font-size="3.00672" >Sensor</text>
                </g>
            </g>
        </g>
    </g>
    <g >
        <g transform="matrix(1, 0, 0, 1, 11.52, 21.24)" >
            <g >
                <g transform="rotate(270)" >
                    <g >
                        <g transform="matrix(1 0 0 1 -1.138040e-05 2.987)" >
                            <text font-family="'OCRA'" fill="#FFFFFF" font-size="2.67264" >on</text>
                        </g>
                    </g>
                </g>
            </g>
        </g>
    </g>
    <g >
        <g >
            <line stroke-linecap="round" fill="none" stroke="#FFFFFF" stroke-width="0.864" x1="20.9331" x2="23.2009"  y1="36" y2="36"/>
        </g>
    </g>
    <g >
        <g >
            <line stroke-linecap="round" fill="none" stroke="#FFFFFF" stroke-width="0.864" x1="9.107" x2="9.107"  y1="48.24" y2="45.36"/>
        </g>
    </g>
    <g >
        <g >
            <line stroke-linecap="round" fill="none" stroke="#FFFFFF" stroke-width="0.864" x1="29.267" x2="29.267"  y1="46.44" y2="49.32"/>
        </g>
    </g>
    <g >
        <g >
            <line stroke-linecap="round" fill="none" stroke="#FFFFFF" stroke-width="0.864" x1="28.907" x2="28.907"  y1="14.4" y2="11.52"/>
        </g>
    </g>
    <g >
        <g >
            <line stroke-linecap="round" fill="none" stroke="#FFFFFF" stroke-width="0.864" x1="39.707" x2="39.707"  y1="48.1861" y2="50.4539"/>
        </g>
    </g>
    <g >
        <g >
            <line stroke-linecap="round" fill="none" stroke="#FFFFFF" stroke-width="0.432" x1="68.8812" x2="61.5111"  y1="40.9039" y2="40.9039"/>
            <line stroke-linecap="round" fill="none" stroke="#FFFFFF" stroke-width="0.432" x1="61.5111" x2="61.5111"  y1="40.9039" y2="37.7858"/>
            <line stroke-linecap="round" fill="none" stroke="#FFFFFF" stroke-width="0.432" x1="61.5111" x2="61.5111"  y1="27.0142" y2="23.6126"/>
            <line stroke-linecap="round" fill="none" stroke="#FFFFFF" stroke-width="0.432" x1="61.5111" x2="68.8812"  y1="23.6126" y2="23.6126"/>
            <line stroke-linecap="round" fill="none" stroke="#FFFFFF" stroke-width="0.432" x1="73.7001" x2="73.7001"  y1="38.3527" y2="26.4473"/>
        </g>
    </g>
    <g >
        <g >
            <line stroke-linecap="round" fill="none" stroke="#FFFFFF" stroke-width="0.432" x1="9.0928" x2="16.4629"  y1="23.8961" y2="23.8961"/>
            <line stroke-linecap="round" fill="none" stroke="#FFFFFF" stroke-width="0.432" x1="16.4629" x2="16.4629"  y1="23.8961" y2="27.0142"/>
            <line stroke-linecap="round" fill="none" stroke="#FFFFFF" stroke-width="0.432" x1="16.4629" x2="16.4629"  y1="37.7858" y2="41.1874"/>
            <line stroke-linecap="round" fill="none" stroke="#FFFFFF" stroke-width="0.432" x1="16.4629" x2="9.0928"  y1="41.1874" y2="41.1874"/>
            <line stroke-linecap="round" fill="none" stroke="#FFFFFF" stroke-width="0.432" x1="4.2739" x2="4.2739"  y1="26.4473" y2="38.3527"/>
        </g>
    </g>
    <g >
        <g >
            <g >
                <path stroke-linecap="round" fill="none" stroke="#FFFFFF" stroke-width="0.432" d="M7.991,20.16l0.9-0.72v1.44L7.991,20.16" />
            </g>
            <g transform="matrix(0, -1, 1, 0, 4.824, 20.16)" >
                <g >
                    <g transform="matrix(-2.535182e-06 -1 1 -2.535182e-06 -2.987 2.987)" >
                        <rect height="2.16" fill="#FFFFFF" x="-0.18" width="0.36"  y="1.907"/>
                    </g>
                </g>
            </g>
        </g>
    </g>
    <g >
        <g >
            <line stroke-linecap="round" fill="none" stroke="#FFFFFF" stroke-width="0.576" x1="57.8714" x2="60.4226"  y1="49.1981" y2="49.1981"/>
            <line stroke-linecap="round" fill="none" stroke="#FFFFFF" stroke-width="0.576" x1="57.8714" x2="60.4226"  y1="42.9619" y2="42.9619"/>
            <circle r="0.2835" fill="none" stroke="#FFFFFF" stroke-width="0.576" cy="50.332" cx="60.1392" />
        </g>
    </g>
    <g >
        <g >
            <line stroke-linecap="round" fill="none" stroke="#FFFFFF" stroke-width="0.864" x1="8.387" x2="8.387"  y1="15.4261" y2="17.6939"/>
        </g>
    </g>
    <g >
        <g >
            <line stroke-linecap="round" fill="none" stroke="#FFFFFF" stroke-width="0.576" x1="55.2012" x2="55.2012"  y1="22.6885" y2="14.7515"/>
            <line stroke-linecap="round" fill="none" stroke="#FFFFFF" stroke-width="0.576" x1="65.9728" x2="65.9728"  y1="14.7515" y2="22.6885"/>
        </g>
    </g>
    <g >
        <g >
            <line stroke-linecap="round" fill="none" stroke="#FFFFFF" stroke-width="0.576" x1="20.987" x2="20.987"  y1="14.4" y2="22.32"/>
            <path fill="none" stroke="#FFFFFF" stroke-width="0.576" d="M15.947,13.68c-0.3976,0-0.72,0.3224-0.72,0.72" />
            <path fill="none" stroke="#FFFFFF" stroke-width="0.576" d="M15.227,22.32c0,0.3976,0.3224,0.72,0.72,0.72c0,0,0,0,0,0" />
            <path fill="none" stroke="#FFFFFF" stroke-width="0.576" d="M20.267,23.04c0.3976,0,0.72-0.3224,0.72-0.72l0,0" />
            <path fill="none" stroke="#FFFFFF" stroke-width="0.576" d="M20.987,14.4c0-0.3976-0.3224-0.72-0.72-0.72" />
            <line stroke-linecap="round" fill="none" stroke="#FFFFFF" stroke-width="0.576" x1="20.267" x2="15.947"  y1="13.68" y2="13.68"/>
            <line stroke-linecap="round" fill="none" stroke="#FFFFFF" stroke-width="0.576" x1="20.267" x2="15.947"  y1="23.04" y2="23.04"/>
            <line stroke-linecap="round" fill="none" stroke="#FFFFFF" stroke-width="0.576" x1="15.227" x2="15.227"  y1="22.32" y2="14.4"/>
        </g>
    </g>
    <g >
        <g >
            <circle r="6.2362" fill="none" stroke="#FFFFFF" stroke-width="0.5669" cy="7.2" cx="10.187" />
        </g>
    </g>
    <g >
        <g >
            <circle r="6.2362" fill="none" stroke="#FFFFFF" stroke-width="0.5669" cy="7.2" cx="67.787" />
        </g>
    </g>
    <g >
        <g >
            <circle r="6.2362" fill="none" stroke="#FFFFFF" stroke-width="0.5669" cy="57.6" cx="10.187" />
        </g>
    </g>
    <g >
        <g >
            <circle r="6.2362" fill="none" stroke="#FFFFFF" stroke-width="0.5669" cy="57.6" cx="67.787" />
        </g>
    </g>
    <g >
        <g >
            <line stroke-linecap="round" fill="none" stroke="#FFFFFF" stroke-width="0.576" x1="14.5098" x2="14.5098"  y1="44.8923" y2="49.4277"/>
            <line stroke-linecap="round" fill="none" stroke="#FFFFFF" stroke-width="0.576" x1="23.8642" x2="23.8642"  y1="44.8923" y2="49.4277"/>
            <line stroke-linecap="round" fill="none" stroke="#FFFFFF" stroke-width="0.576" x1="18.0531" x2="20.3209"  y1="44.1836" y2="44.1836"/>
        </g>
    </g>
    <g >
        <g >
            <line stroke-linecap="round" fill="none" stroke="#FFFFFF" stroke-width="0.432" x1="24.8138" x2="53.1602"  y1="16.0668" y2="16.0668"/>
            <line stroke-linecap="round" fill="none" stroke="#FFFFFF" stroke-width="0.432" x1="53.1602" x2="53.1602"  y1="16.0668" y2="44.4132"/>
            <line stroke-linecap="round" fill="none" stroke="#FFFFFF" stroke-width="0.432" x1="53.1602" x2="24.8138"  y1="44.4132" y2="44.4132"/>
            <line stroke-linecap="round" fill="none" stroke="#FFFFFF" stroke-width="0.432" x1="24.8138" x2="24.8138"  y1="44.4132" y2="16.0668"/>
            <circle r="1.4173" fill="none" stroke="#FFFFFF" stroke-width="0.432" cy="18.618" cx="27.365" />
        </g>
    </g>
    <g transform="matrix(0, -1, 1, 0, -19.3295, 57.4895)" >
        <g >
            <g transform="matrix(-2.535182e-06 -1 1 -2.535182e-06 -22.3164 60.4766)" >
                <rect height="3.0472" fill="#9A916C" id="connector5pin" x="17.6627" width="2.8347"  y="39.8729" gorn="0.28.0.0.0"/>
            </g>
        </g>
    </g>
    <g transform="matrix(0, -1, 1, 0, -14.5105, 52.6705)" >
        <g >
            <g transform="matrix(-2.535182e-06 -1 1 -2.535182e-06 -17.4974 55.6576)" >
                <rect height="3.0472" fill="#9A916C" id="connector6pin" x="17.6627" width="2.8347"  y="35.0539" gorn="0.29.0.0.0"/>
            </g>
        </g>
    </g>
    <g transform="matrix(-1, 0, 0, -1, 17.6258, 93.6)" >
        <g >
            <rect height="4.252" fill="#9A916C" id="connector7pin" x="4.0685" width="3.515"  y="44.674" gorn="0.30.0.0"/>
        </g>
    </g>
    <g transform="matrix(-1, 0, 0, -1, 6.85417, 93.6)" >
        <g >
            <rect height="4.252" fill="#9A916C" id="connector8pin" x="-1.3174" width="3.515"  y="44.674" gorn="0.31.0.0"/>
        </g>
    </g>
    <rect height="4.252" fill="#9A916C" id="connector9pin" x="24.8166" width="3.515"  y="45.754" gorn="0.32"/>
    <rect height="4.252" fill="#9A916C" id="connector10pin" x="30.2024" width="3.515"  y="45.754" gorn="0.33"/>
    <g transform="matrix(-1, 0, 0, -1, 57.2258, 25.92)" >
        <g >
            <rect height="4.252" fill="#9A916C" id="connector11pin" x="23.8684" width="3.515"  y="10.834" gorn="0.34.0.0"/>
        </g>
    </g>
    <g transform="matrix(-1, 0, 0, -1, 46.4542, 25.92)" >
        <g >
            <rect height="4.252" fill="#9A916C" id="connector12pin" x="18.4826" width="3.515"  y="10.834" gorn="0.35.0.0"/>
        </g>
    </g>
    <rect height="2.8347" fill="#9A916C" id="connector13pin" x="35.7739" width="3.0472"  y="47.9027" gorn="0.36"/>
    <rect height="2.8347" fill="#9A916C" id="connector14pin" x="40.5928" width="3.0472"  y="47.9027" gorn="0.37"/>
    <g transform="matrix(-1, 0, 0, -1, 115.348, 73.3039)" >
        <g >
            <rect height="1.7008" fill="#9A916C" x="52.4899" width="4.3937"  y="35.8016" gorn="0.38.0.0"/>
        </g>
    </g>
    <g transform="matrix(-1, 0, 0, -1, 115.348, 67.6346)" >
        <g >
            <rect height="1.7008" fill="#9A916C" x="52.4899" width="4.3937"  y="32.9669" gorn="0.39.0.0"/>
        </g>
    </g>
    <g transform="matrix(-1, 0, 0, -1, 115.348, 61.9654)" >
        <g >
            <rect height="1.7008" fill="#9A916C" x="52.4899" width="4.3937"  y="30.1323" gorn="0.40.0.0"/>
        </g>
    </g>
    <g transform="matrix(-1, 0, 0, -1, 115.348, 56.2961)" >
        <g >
            <rect height="1.7008" fill="#9A916C" x="52.4899" width="4.3937"  y="27.2976" gorn="0.41.0.0"/>
        </g>
    </g>
    <g transform="matrix(-1, 0, 0, -1, 137.457, 80.6738)" >
        <g >
            <rect height="3.4016" fill="#9A916C" id="connector19pin" x="63.1906" width="5.1024"  y="38.6362" gorn="0.42.0.0"/>
        </g>
    </g>
    <g transform="matrix(-1, 0, 0, -1, 137.457, 48.926)" >
        <g >
            <rect height="3.4016" fill="#9A916C" id="connector20pin" x="63.1906" width="5.1024"  y="22.7622" gorn="0.43.0.0"/>
        </g>
    </g>
    <rect height="1.7008" fill="#9A916C" x="15.1165" width="4.3937"  y="27.2976" gorn="0.44"/>
    <rect height="1.7008" fill="#9A916C" x="15.1165" width="4.3937"  y="30.1323" gorn="0.45"/>
    <rect height="1.7008" fill="#9A916C" x="15.1165" width="4.3937"  y="32.9669" gorn="0.46"/>
    <rect height="1.7008" fill="#9A916C" x="15.1165" width="4.3937"  y="35.8016" gorn="0.47"/>
    <rect height="3.4016" fill="#9A916C" id="connector25pin" x="3.707" width="5.1024"  y="22.7622" gorn="0.48"/>
    <rect height="3.4016" fill="#9A916C" id="connector26pin" x="3.707" width="5.1024"  y="38.6362" gorn="0.49"/>
    <g transform="matrix(0, -1, 1, 0, -12.634, 27.686)" >
        <g >
            <g transform="matrix(-2.535182e-06 -1 1 -2.535182e-06 -15.6209 30.673)" >
                <rect height="2.2677" fill="#9A916C" id="connector27pin" x="6.3921" width="2.2677"  y="22.0131" gorn="0.50.0.0.0"/>
            </g>
        </g>
    </g>
    <g transform="matrix(0, -1, 1, 0, -16.886, 23.434)" >
        <g >
            <g transform="matrix(-2.535182e-06 -1 1 -2.535182e-06 -19.8729 26.421)" >
                <rect height="2.2677" fill="#9A916C" id="connector28pin" x="2.1402" width="2.2677"  y="22.0131" gorn="0.51.0.0.0"/>
            </g>
        </g>
    </g>
    <path fill="#9A916C" id="connector29pin" d="M57.347,1.4627L57.347,1.4627c0.7828,0,1.4173,0.6346,1.4173,1.4173v0c0,0.7828-0.6346,1.4173-1.4173,1.4173h0c-0.7828,0-1.4173-0.6346-1.4173-1.4173v0C55.9297,2.0972,56.5642,1.4627,57.347,1.4627z"  gorn="0.52"/>
    <path fill="#9A916C" id="connector30pin" d="M51.587,50.4227L51.587,50.4227c0.7828,0,1.4173,0.6346,1.4173,1.4173v0c0,0.7828-0.6346,1.4173-1.4173,1.4173h0c-0.7828,0-1.4173-0.6346-1.4173-1.4173v0C50.1697,51.0573,50.8042,50.4227,51.587,50.4227z"  gorn="0.53"/>
    <circle r="2.0767" fill="none" id="connector31pin" stroke="#9A916C" stroke-width="1.3187" cy="57.6" cx="24.587"  gorn="0.54"/>
    <circle r="2.0767" fill="none" id="connector32pin" stroke="#9A916C" stroke-width="1.3187" cy="57.6" cx="31.787"  gorn="0.55"/>
    <circle r="2.0767" fill="none" id="connector33pin" stroke="#9A916C" stroke-width="1.3187" cy="57.6" cx="38.987"  gorn="0.56"/>
    <circle r="2.0767" fill="none" id="connector34pin" stroke="#9A916C" stroke-width="1.3187" cy="57.6" cx="46.187"  gorn="0.57"/>
    <circle r="2.0767" fill="none" id="connector35pin" stroke="#9A916C" stroke-width="1.3187" cy="57.6" cx="53.387"  gorn="0.58"/>
    <g transform="matrix(0, -1, 1, 0, 10.5052, 106.917)" >
        <g >
            <g transform="matrix(-2.535182e-06 -1 1 -2.535182e-06 7.5185 109.9043)" >
                <rect height="1.4173" fill="#9A916C" id="connector36pin" x="58.0026" width="1.4173"  y="50.4843" gorn="0.59.0.0.0"/>
            </g>
        </g>
    </g>
    <g transform="matrix(0, -1, 1, 0, 12.6312, 104.791)" >
        <g >
            <g transform="matrix(-2.535182e-06 -1 1 -2.535182e-06 9.6444 107.7782)" >
                <rect height="1.1339" fill="#9A916C" id="connector37pin" x="58.0025" width="1.4173"  y="48.5" gorn="0.60.0.0.0"/>
            </g>
        </g>
    </g>
    <g transform="matrix(0, -1, 1, 0, 14.7572, 102.666)" >
        <g >
            <g transform="matrix(-2.535182e-06 -1 1 -2.535182e-06 11.7704 105.6524)" >
                <rect height="1.4173" fill="#9A916C" id="connector38pin" x="58.0026" width="1.4173"  y="46.2324" gorn="0.61.0.0.0"/>
            </g>
        </g>
    </g>
    <g transform="matrix(0, -1, 1, 0, 9.65477, 97.5629)" >
        <g >
            <g transform="matrix(-2.535182e-06 -1 1 -2.535182e-06 6.6679 100.5499)" >
                <rect height="1.4173" fill="#9A916C" id="connector39pin" x="52.9001" width="1.4173"  y="46.2324" gorn="0.62.0.0.0"/>
            </g>
        </g>
    </g>
    <g transform="matrix(0, -1, 1, 0, 7.52882, 99.689)" >
        <g >
            <g transform="matrix(-2.535182e-06 -1 1 -2.535182e-06 4.542 102.6759)" >
                <rect height="1.1339" fill="#9A916C" id="connector40pin" x="52.9002" width="1.4173"  y="48.5" gorn="0.63.0.0.0"/>
            </g>
        </g>
    </g>
    <g transform="matrix(0, -1, 1, 0, 5.40284, 101.814)" >
        <g >
            <g transform="matrix(-2.535182e-06 -1 1 -2.535182e-06 2.416 104.8018)" >
                <rect height="1.4173" fill="#9A916C" id="connector41pin" x="52.9001" width="1.4173"  y="50.4843" gorn="0.64.0.0.0"/>
            </g>
        </g>
    </g>
    <rect height="2.8347" fill="#9A916C" id="connector42pin" x="4.4539" width="3.0472"  y="15.1427" gorn="0.65"/>
    <rect height="2.8347" fill="#9A916C" id="connector43pin" x="9.2728" width="3.0472"  y="15.1427" gorn="0.66"/>
    <g transform="matrix(-1, 0, 0, -1, 122.57, 32.6211)" >
        <g >
            <rect height="2.5512" fill="#9A916C" id="connector44pin" x="57.6603" width="1.2756"  y="15.035" gorn="0.67.0.0"/>
        </g>
    </g>
    <g transform="matrix(-1, 0, 0, -1, 117.468, 32.6211)" >
        <g >
            <rect height="2.5512" fill="#9A916C" id="connector45pin" x="55.1091" width="1.2756"  y="15.035" gorn="0.68.0.0"/>
        </g>
    </g>
    <g transform="matrix(-1, 0, 0, -1, 112.932, 32.6211)" >
        <g >
            <rect height="2.5512" fill="#9A916C" id="connector46pin" x="52.8414" width="1.2756"  y="15.035" gorn="0.69.0.0"/>
        </g>
    </g>
    <g transform="matrix(-1, 0, 0, -1, 107.83, 32.6211)" >
        <g >
            <rect height="2.5512" fill="#9A916C" id="connector47pin" x="50.2902" width="1.2756"  y="15.035" gorn="0.70.0.0"/>
        </g>
    </g>
    <g transform="matrix(-1, 0, 0, -1, 107.83, 42.2589)" >
        <g >
            <rect height="2.5512" fill="#9A916C" id="connector48pin" x="50.2902" width="1.2756"  y="19.8539" gorn="0.71.0.0"/>
        </g>
    </g>
    <g transform="matrix(-1, 0, 0, -1, 112.932, 42.2589)" >
        <g >
            <rect height="2.5512" fill="#9A916C" id="connector49pin" x="52.8414" width="1.2756"  y="19.8539" gorn="0.72.0.0"/>
        </g>
    </g>
    <g transform="matrix(-1, 0, 0, -1, 117.468, 42.2589)" >
        <g >
            <rect height="2.5512" fill="#9A916C" id="connector50pin" x="55.1091" width="1.2756"  y="19.8539" gorn="0.73.0.0"/>
        </g>
    </g>
    <g transform="matrix(-1, 0, 0, -1, 122.57, 42.2589)" >
        <g >
            <rect height="2.5512" fill="#9A916C" id="connector51pin" x="57.6603" width="1.2756"  y="19.8539" gorn="0.74.0.0"/>
        </g>
    </g>
    <g transform="matrix(0, -1, 1, 0, -5.4, 35.64)" >
        <g >
            <g transform="matrix(-2.535182e-06 -1 1 -2.535182e-06 -8.3869 38.627)" >
                <rect height="3.312" fill="#9A916C" id="connector52pin" x="12.852" width="4.536"  y="21.851" gorn="0.75.0.0.0"/>
            </g>
        </g>
    </g>
    <g transform="matrix(0, -1, 1, 0, -1.08, 31.32)" >
        <g >
            <g transform="matrix(-2.535182e-06 -1 1 -2.535182e-06 -4.0669 34.307)" >
                <rect height="3.312" fill="#9A916C" id="connector53pin" x="12.852" width="4.536"  y="17.531" gorn="0.76.0.0.0"/>
            </g>
        </g>
    </g>
    <g transform="matrix(0, 1, -1, 0, 33.48, 3.24)" >
        <g >
            <g transform="matrix(2.535182e-06 1 -1 2.535182e-06 30.493 0.253)" >
                <rect height="1.8" fill="#9A916C" id="connector54pin" x="14.832" width="0.576"  y="14.473" gorn="0.77.0.0.0"/>
            </g>
        </g>
    </g>
    <circle r="4.972" fill="none" id="connector55pin" stroke="#9A916C" stroke-width="1.44" cy="7.2" cx="10.187"  gorn="0.78"/>
    <circle r="4.972" fill="none" id="connector56pin" stroke="#9A916C" stroke-width="1.44" cy="7.2" cx="67.787"  gorn="0.79"/>
    <circle r="4.972" fill="none" id="connector57pin" stroke="#9A916C" stroke-width="1.44" cy="57.6" cx="10.187"  gorn="0.80"/>
    <circle r="4.972" fill="none" id="connector58pin" stroke="#9A916C" stroke-width="1.44" cy="57.6" cx="67.787"  gorn="0.81"/>
    <rect height="3.4016" fill="#9A916C" id="connector59pin" x="15.7146" width="1.559"  y="49.1445" gorn="0.82"/>
    <rect height="3.4016" fill="#9A916C" id="connector60pin" x="18.4075" width="1.559"  y="49.1445" gorn="0.83"/>
    <rect height="3.4016" fill="#9A916C" id="connector61pin" x="21.1004" width="1.559"  y="49.1445" gorn="0.84"/>
    <rect height="3.4016" fill="#9A916C" id="connector62pin" x="21.1004" width="1.559"  y="41.7739" gorn="0.85"/>
    <rect height="3.4016" fill="#9A916C" id="connector63pin" x="15.7146" width="1.559"  y="41.7739" gorn="0.86"/>
    <g transform="matrix(0, 1, -1, 0, 47.8148, -1.50803)" >
        <g >
            <g transform="matrix(2.535182e-06 1 -1 2.535182e-06 44.8278 -4.4951)" >
                <rect height="2.2677" fill="#9A916C" id="connector64pin" x="22.5355" width="4.252"  y="19.0326" gorn="0.87.0.0.0"/>
            </g>
        </g>
    </g>
    <g transform="matrix(0, 1, -1, 0, 51.3581, 2.03527)" >
        <g >
            <g transform="matrix(2.535182e-06 1 -1 2.535182e-06 48.3711 -0.9518)" >
                <rect height="2.2677" fill="#9A916C" id="connector65pin" x="22.5355" width="4.252"  y="22.5759" gorn="0.88.0.0.0"/>
            </g>
        </g>
    </g>
    <g transform="matrix(0, 1, -1, 0, 54.9014, 5.57858)" >
        <g >
            <g transform="matrix(2.535182e-06 1 -1 2.535182e-06 51.9144 2.5915)" >
                <rect height="2.2677" fill="#9A916C" id="connector66pin" x="22.5355" width="4.252"  y="26.1192" gorn="0.89.0.0.0"/>
            </g>
        </g>
    </g>
    <g transform="matrix(0, 1, -1, 0, 58.4447, 9.1219)" >
        <g >
            <g transform="matrix(2.535182e-06 1 -1 2.535182e-06 55.4577 6.1348)" >
                <rect height="2.2677" fill="#9A916C" id="connector67pin" x="22.5355" width="4.252"  y="29.6625" gorn="0.90.0.0.0"/>
            </g>
        </g>
    </g>
    <g transform="matrix(0, 1, -1, 0, 61.988, 12.6652)" >
        <g >
            <g transform="matrix(2.535182e-06 1 -1 2.535182e-06 59.0011 9.6782)" >
                <rect height="2.2677" fill="#9A916C" id="connector68pin" x="22.5355" width="4.252"  y="33.2059" gorn="0.91.0.0.0"/>
            </g>
        </g>
    </g>
    <rect height="4.252" fill="#9A916C" id="connector69pin" x="30.7665" width="2.2677"  y="39.4526" gorn="0.92"/>
    <rect height="4.252" fill="#9A916C" id="connector70pin" x="34.3098" width="2.2677"  y="39.4526" gorn="0.93"/>
    <rect height="4.252" fill="#9A916C" id="connector71pin" x="37.8531" width="2.2677"  y="39.4526" gorn="0.94"/>
    <rect height="4.252" fill="#9A916C" id="connector72pin" x="41.3965" width="2.2677"  y="39.4526" gorn="0.95"/>
    <rect height="4.252" fill="#9A916C" id="connector73pin" x="44.9397" width="2.2677"  y="39.4526" gorn="0.96"/>
    <g transform="matrix(0, -1, 1, 0, 10.012, 84.6655)" >
        <g >
            <g transform="matrix(-2.535182e-06 -1 1 -2.535182e-06 7.025 87.6523)" >
                <rect height="2.2677" fill="#9A916C" id="connector74pin" x="45.2126" width="4.252"  y="39.1798" gorn="0.97.0.0.0"/>
            </g>
        </g>
    </g>
    <g transform="matrix(0, -1, 1, 0, 13.5553, 81.1217)" >
        <g >
            <g transform="matrix(-2.535182e-06 -1 1 -2.535182e-06 10.5684 84.1089)" >
                <rect height="2.2677" fill="#9A916C" id="connector75pin" x="45.2126" width="4.252"  y="35.6364" gorn="0.98.0.0.0"/>
            </g>
        </g>
    </g>
    <g transform="matrix(0, -1, 1, 0, 17.0986, 77.5786)" >
        <g >
            <g transform="matrix(-2.535182e-06 -1 1 -2.535182e-06 14.1117 80.5656)" >
                <rect height="2.2677" fill="#9A916C" id="connector76pin" x="45.2126" width="4.252"  y="32.0931" gorn="0.99.0.0.0"/>
            </g>
        </g>
    </g>
    <g transform="matrix(0, -1, 1, 0, 20.6419, 74.0354)" >
        <g >
            <g transform="matrix(-2.535182e-06 -1 1 -2.535182e-06 17.655 77.0223)" >
                <rect height="2.2677" fill="#9A916C" id="connector77pin" x="45.2126" width="4.252"  y="28.5498" gorn="0.100.0.0.0"/>
            </g>
        </g>
    </g>
    <g transform="matrix(0, -1, 1, 0, 24.1852, 70.492)" >
        <g >
            <g transform="matrix(-2.535182e-06 -1 1 -2.535182e-06 21.1983 73.479)" >
                <rect height="2.2677" fill="#9A916C" id="connector78pin" x="45.2126" width="4.252"  y="25.0065" gorn="0.101.0.0.0"/>
            </g>
        </g>
    </g>
    <g transform="matrix(-1, 0, 0, -1, 86.1732, 37.8028)" >
        <g >
            <rect height="4.252" fill="#9A916C" id="connector79pin" x="38.9657" width="2.2677"  y="16.7754" gorn="0.102.0.0"/>
        </g>
    </g>
    <g transform="matrix(-1, 0, 0, -1, 79.087, 37.8028)" >
        <g >
            <rect height="4.252" fill="#9A916C" id="connector80pin" x="35.4225" width="2.2677"  y="16.7754" gorn="0.103.0.0"/>
        </g>
    </g>
    <g transform="matrix(-1, 0, 0, -1, 72, 37.8028)" >
        <g >
            <rect height="4.252" fill="#9A916C" id="connector81pin" x="31.8791" width="2.2677"  y="16.7754" gorn="0.104.0.0"/>
        </g>
    </g>
    <g transform="matrix(-1, 0, 0, -1, 64.9134, 37.8028)" >
        <g >
            <rect height="4.252" fill="#9A916C" id="connector82pin" x="28.3358" width="2.2677"  y="16.7754" gorn="0.105.0.0"/>
        </g>
    </g>
    <g transform="matrix(-1, 0, 0, -1, 57.8268, 37.8028)" >
        <g >
            <rect height="4.252" fill="#9A916C" id="connector83pin" x="24.7925" width="2.2677"  y="16.7754" gorn="0.106.0.0"/>
        </g>
    </g>
    <rect height="13.6063" fill="#9A916C" id="connector84pin" x="32.1839" width="13.6063"  y="23.4369" gorn="0.107"/>
    <g transform="matrix(1, 0, 0, 1, 16.8125, 34.866)" >
        <g id="_x30_603-cap"  gorn="0.108.0">
            <g transform="matrix(0, -1, 1, 0, 1.1335, 3.4015)" >
                <g >
                    <path fill="#DCDCDC" d="M4.245,5.255H0.29C0.13,5.255,0,5.125,0,4.964V3.277c0-0.16,0.13-0.29,0.29-0.29h3.955c0.16,0,0.29,0.13,0.29,0.29v1.687C4.535,5.125,4.405,5.255,4.245,5.255z" />
                    <g transform="matrix(-2.535182e-06 -1 1 -2.535182e-06 -1.853 6.389)" >
                        <rect height="2.268" fill="#6E554B" x="1.134" width="2.268"  y="2.987"/>
                    </g>
                </g>
            </g>
        </g>
    </g>
    <g transform="matrix(1, 0, 0, 1, 3.2855, 45.0285)" >
        <g id="_x30_805-cap"  gorn="0.109.0">
            <g transform="matrix(-1, 0, 0, -1, 5.669, 3.543)" >
                <g >
                    <path fill="#DCDCDC" d="M2.399,3.543h-5.103c-0.156,0-0.283-0.127-0.283-0.283V0.283C-2.987,0.127-2.86,0-2.704,0h5.102c0.157,0,0.283,0.127,0.283,0.283V3.26C2.682,3.416,2.555,3.543,2.399,3.543z" />
                    <rect height="3.543" fill="#6E554B" x="-1.924" width="3.543"  y="0"/>
                </g>
            </g>
        </g>
    </g>
    <g transform="matrix(1, 0, 0, 1, 23.4455, 46.1085)" >
        <g id="_x30_805-cap_1_"  gorn="0.110.0">
            <path fill="#DCDCDC" d="M8.373,3.543H3.27c-0.156,0-0.283-0.127-0.283-0.283V0.283C2.987,0.127,3.114,0,3.27,0h5.102c0.157,0,0.283,0.127,0.283,0.283V3.26C8.656,3.416,8.529,3.543,8.373,3.543z" />
            <rect height="3.543" fill="#6E554B" x="4.05" width="3.543"  y="0"/>
        </g>
    </g>
    <g transform="matrix(1, 0, 0, 1, 23.0855, 11.1885)" >
        <g id="_x30_805-cap_2_"  gorn="0.111.0">
            <g transform="matrix(-1, 0, 0, -1, 5.669, 3.543)" >
                <g >
                    <path fill="#DCDCDC" d="M2.399,3.543h-5.103c-0.156,0-0.283-0.127-0.283-0.283V0.283C-2.987,0.127-2.86,0-2.704,0h5.102c0.157,0,0.283,0.127,0.283,0.283V3.26C2.682,3.416,2.555,3.543,2.399,3.543z" />
                    <rect height="3.543" fill="#6E554B" x="-1.924" width="3.543"  y="0"/>
                </g>
            </g>
        </g>
    </g>
    <g transform="matrix(1, 0, 0, 1, 34.4525, 48.186)" >
        <g id="_x30_603-cap_1_"  gorn="0.112.0">
            <path fill="#DCDCDC" d="M7.232,2.268H3.277c-0.16,0-0.29-0.13-0.29-0.291V0.29c0-0.16,0.13-0.29,0.29-0.29h3.955c0.16,0,0.29,0.13,0.29,0.29v1.687C7.522,2.138,7.392,2.268,7.232,2.268z" />
            <rect height="2.268" fill="#6E554B" x="4.121" width="2.268"  y="0"/>
        </g>
    </g>
    <g transform="matrix(1, 0, 0, 1, 54.5625, 23.2925)" >
        <g id="jst_sh4"  gorn="0.113.0">
            <g transform="matrix(0, -1, 1, 0, -0.291564, 17.9233)" >
                <g >
                    <path nodetypes="ccccccccc" fill="#666666" id="polygon5" d="M1.9103,7.8672l14.1872-0.017l0.0019,1.4315L17.5179,9.28l0.0136,10.0208L0.5078,19.3212L0.4941,9.3004l1.418-0.0017L1.9103,7.8672z"  gorn="0.113.0.0.0.0" connector-curvature="0"/>
                    <g transform="matrix(-0.0068 -1 1 -0.0068 1.9991 27.5514)" >
                        <rect height="1.4185" id="rect7" x="12.4958" width="4.3718"  y="12.0737" gorn="0.113.0.0.0.1.0"/>
                    </g>
                    <g transform="matrix(-0.0068 -1 1 -0.0068 -9.5017 16.2834)" >
                        <rect height="1.4185" id="rect9" x="1.1497" width="4.3718"  y="12.151" gorn="0.113.0.0.0.2.0"/>
                    </g>
                    <g transform="matrix(-0.0068 -1 1 -0.0068 4.8919 24.5955)" >
                        <rect height="1.4185" fill="#333333" id="rect11" x="13.9315" width="1.4574"  y="9.1592" gorn="0.113.0.0.0.3.0"/>
                    </g>
                    <g transform="matrix(-0.0068 -1 1 -0.0068 -6.6088 13.3275)" >
                        <rect height="1.4185" fill="#333333" id="rect13" x="2.5854" width="1.4574"  y="9.2365" gorn="0.113.0.0.0.4.0"/>
                    </g>
                    <g transform="matrix(-0.0068 -1 1 -0.0068 5.9858 20.6006)" >
                        <rect height="0.9927" fill="#DCDCDC" id="rect19" x="11.4016" width="3.6433"  y="6.8314" gorn="0.113.0.0.0.5.0"/>
                    </g>
                    <g transform="matrix(-0.0068 -1 1 -0.0068 3.1108 17.7838)" >
                        <rect height="0.9927" fill="#DCDCDC" id="rect21" x="8.5652" width="3.6433"  y="6.8507" gorn="0.113.0.0.0.6.0"/>
                    </g>
                    <g transform="matrix(-0.0068 -1 1 -0.0068 3.1108 17.7838)" >
                        <rect height="0.9927" fill="#DCDCDC" id="rect4164" x="8.5652" width="3.6433"  y="6.8507" gorn="0.113.0.0.0.7.0"/>
                    </g>
                    <g transform="matrix(-0.0068 -1 1 -0.0068 0.2355 14.9667)" >
                        <rect height="0.9927" fill="#DCDCDC" id="rect4188" x="5.7286" width="3.6433"  y="6.8701" gorn="0.113.0.0.0.8.0"/>
                    </g>
                    <g transform="matrix(-0.0068 -1 1 -0.0068 -2.6397 12.1497)" >
                        <rect height="0.9927" fill="#DCDCDC" id="rect4143" x="2.8921" width="3.6433"  y="6.8894" gorn="0.113.0.0.0.9.0"/>
                    </g>
                    <path id="path594" d="M0.5082,14.4342c0-2.6862-0.0043-4.9385-0.0095-5.0052L0.4892,9.3078H1.204h0.7148V8.5879V7.868h1.1437H4.206l0.0097,0.3416c0.0053,0.1879,0.0097,0.492,0.0097,0.6758l0,0.3342l0.2241,0c0.1232,0,0.348-0.0044,0.4995-0.0097l0.2755-0.0096V8.5342V7.868h0.9086h0.9086l0.0096,0.2314C7.0566,8.2267,7.0609,8.5242,7.061,8.7606l0,0.4297l0.4996,0h0.4995V8.5292V7.868H8.971H9.882l0.0018,0.1102c0.001,0.0606,0.0035,0.1168,0.0055,0.1249s0.0045,0.2528,0.0055,0.5438L9.8967,9.176l0.5007-0.0039l0.5007-0.0039l-0.0018-0.6501L10.8946,7.868h0.9099c0.8162,0,0.9108,0.0024,0.9188,0.0232c0.0049,0.0128,0.0089,0.3037,0.0089,0.6465v0.6232h0.3062c0.1684,0,0.3949-0.0042,0.5032-0.0094l0.197-0.0094l-0.0044-0.6444l-0.0044-0.6444h1.1834h1.1834v0.7199v0.7199h0.7028h0.7028l0.0098,1.6553c0.0054,0.9104,0.0098,3.1616,0.0098,5.0027v3.3474l-3.2507,0c-1.7879,0-5.6159,0.0044-8.5068,0.0098l-5.2562,0.0098L0.5082,14.4342z M4.0639,14.7476c0.0002-0.545-0.0289-4.2541-0.0384-4.9092L4.0162,9.2011L3.3091,9.2119c-0.3889,0.0059-0.709,0.0125-0.7112,0.0146c-0.0055,0.0052,0.0236,4.2668,0.0351,5.1319l0.0092,0.6942h0.7108h0.7108L4.0639,14.7476L4.0639,14.7476z M15.4012,14.9595c0.0116-0.0116-0.0206-5.4879-0.0335-5.6931l-0.0086-0.1369l-0.7026,0.0047c-0.3864,0.0026-0.7058,0.008-0.7097,0.012c-0.0067,0.0069,0.0045,1.8862,0.0275,4.6263l0.0102,1.2104l0.7033-0.0067C15.0747,14.9725,15.3957,14.965,15.4012,14.9595z"  gorn="0.113.0.0.0.10" connector-curvature="0"/>
                    <path id="path596" d="M2.6038,10.5861c-0.005-0.0525-0.0091-0.3774-0.0091-0.722L2.5946,9.2376l0.0551-0.0071C2.7233,9.2211,3.1293,9.2137,3.617,9.213l0.398-0.0006l0.0091,0.5216c0.005,0.2869,0.0051,0.6157,0.0001,0.7307l-0.009,0.2091l-0.7012,0.004l-0.7012,0.004L2.6038,10.5861z"  gorn="0.113.0.0.0.11" connector-curvature="0"/>
                    <path id="path598" d="M13.9613,10.4001c-0.0053-0.1104-0.0096-0.4376-0.0096-0.7273l0.0001-0.5266l0.1065-0.0034c0.0586-0.0019,0.3759-0.0035,0.7052-0.0037l0.5986-0.0002l0.0016,0.0955c0.0009,0.0525,0.0026,0.3814,0.0038,0.7309l0.0022,0.6354l-0.6993,0l-0.6993,0L13.9613,10.4001z"  gorn="0.113.0.0.0.12" connector-curvature="0"/>
                    <g transform="matrix(-2.535182e-06 -1 1 -2.535182e-06 -19.3592 24.0508)" >
                        <ellipse rx="2.0127" ry="2.0127" id="connector15pin" cy="21.705" cx="2.3458"  gorn="0.113.0.0.0.13.0"/>
                    </g>
                    <g transform="matrix(-2.535182e-06 -1 1 -2.535182e-06 -14.8237 28.5863)" >
                        <ellipse rx="2.0127" fill="#FF0000" ry="2.0127" id="connector16pin" cy="21.705" cx="6.8812"  gorn="0.113.0.0.0.14.0"/>
                    </g>
                    <g transform="matrix(-2.535182e-06 -1 1 -2.535182e-06 -10.2883 33.1217)" >
                        <ellipse rx="2.0127" fill="#0000FF" ry="2.0127" id="connector17pin" cy="21.705" cx="11.4167"  gorn="0.113.0.0.0.15.0"/>
                    </g>
                    <g transform="matrix(-2.535182e-06 -1 1 -2.535182e-06 -5.7529 37.6571)" >
                        <ellipse rx="2.0127" fill="#FFFF00" ry="2.0127" id="connector18pin" cy="21.705" cx="15.9521"  gorn="0.113.0.0.0.16.0"/>
                    </g>
                </g>
            </g>
        </g>
    </g>
    <g transform="matrix(1, 0, 0, 1, -0.194322, 23.2925)" >
        <g id="jst_sh4_1_"  gorn="0.114.0">
            <g transform="matrix(0, 1, -1, 0, 17.9233, 0.291564)" >
                <g >
                    <path nodetypes="ccccccccc" fill="#666666" id="polygon5_1_" d="M1.5773,1.8785l14.1872-0.017l0.0019,1.4315l1.4185-0.0017l0.0136,10.0208L0.1748,13.3325L0.1611,3.3117L1.5791,3.31L1.5773,1.8785z"  gorn="0.114.0.0.0.0" connector-curvature="0"/>
                    <g transform="matrix(0.0068 1 -1 0.0068 21.045 -7.6004)" >
                        <rect height="1.4185" id="rect7_1_" x="12.1628" width="4.3718"  y="6.085" gorn="0.114.0.0.0.1.0"/>
                    </g>
                    <g transform="matrix(0.0068 1 -1 0.0068 9.8535 3.8222)" >
                        <rect height="1.4185" id="rect9_1_" x="0.8167" width="4.3718"  y="6.1623" gorn="0.114.0.0.0.2.0"/>
                    </g>
                    <g transform="matrix(0.0068 1 -1 0.0068 18.1091 -10.4736)" >
                        <rect height="1.4185" fill="#333333" id="rect11_1_" x="13.5985" width="1.4574"  y="3.1705" gorn="0.114.0.0.0.3.0"/>
                    </g>
                    <g transform="matrix(0.0068 1 -1 0.0068 6.9177 0.949)" >
                        <rect height="1.4185" fill="#333333" id="rect13_1_" x="2.2524" width="1.4574"  y="3.2478" gorn="0.114.0.0.0.4.0"/>
                    </g>
                    <g transform="matrix(0.0068 1 -1 0.0068 14.1414 -11.56)" >
                        <rect height="0.9927" fill="#DCDCDC" id="rect19_1_" x="11.0686" width="3.6433"  y="0.8427" gorn="0.114.0.0.0.5.0"/>
                    </g>
                    <g transform="matrix(0.0068 1 -1 0.0068 11.3437 -8.7045)" >
                        <rect height="0.9927" fill="#DCDCDC" id="rect21_1_" x="8.2322" width="3.6433"  y="0.862" gorn="0.114.0.0.0.6.0"/>
                    </g>
                    <g transform="matrix(0.0068 1 -1 0.0068 11.3437 -8.7045)" >
                        <rect height="0.9927" fill="#DCDCDC" id="rect4164_1_" x="8.2322" width="3.6433"  y="0.862" gorn="0.114.0.0.0.7.0"/>
                    </g>
                    <g transform="matrix(0.0068 1 -1 0.0068 8.5457 -5.8488)" >
                        <rect height="0.9927" fill="#DCDCDC" id="rect4188_1_" x="5.3956" width="3.6433"  y="0.8814" gorn="0.114.0.0.0.8.0"/>
                    </g>
                    <g transform="matrix(0.0068 1 -1 0.0068 5.7479 -2.9931)" >
                        <rect height="0.9927" fill="#DCDCDC" id="rect4143_1_" x="2.5591" width="3.6433"  y="0.9007" gorn="0.114.0.0.0.9.0"/>
                    </g>
                    <path id="path594_1_" d="M0.1752,8.4455c0-2.6862-0.0043-4.9385-0.0095-5.0052L0.1562,3.3191H0.871h0.7148V2.5992V1.8793h1.1437H3.873l0.0097,0.3416c0.0053,0.1879,0.0097,0.492,0.0097,0.6758l0,0.3342l0.2241,0c0.1232,0,0.348-0.0044,0.4995-0.0097l0.2755-0.0096V2.5455V1.8793h0.9086h0.9086l0.0096,0.2314C6.7236,2.238,6.7279,2.5355,6.728,2.7719l0,0.4297l0.4996,0h0.4995V2.5404V1.8793H8.638H9.549l0.0018,0.1102c0.001,0.0606,0.0035,0.1168,0.0055,0.1249c0.002,0.0081,0.0045,0.2528,0.0055,0.5438l0.0018,0.5291l0.5007-0.0039l0.5007-0.0039l-0.0018-0.6501l-0.0018-0.6501h0.9099c0.8162,0,0.9108,0.0024,0.9188,0.0232c0.0049,0.0128,0.0089,0.3037,0.0089,0.6465v0.6232h0.3062c0.1684,0,0.3949-0.0042,0.5032-0.0094l0.197-0.0094L13.4013,2.509l-0.0044-0.6444h1.1834h1.1834v0.7199v0.7199h0.7028h0.7028l0.0098,1.6553c0.0054,0.9104,0.0098,3.1616,0.0098,5.0027v3.3474l-3.2507,0c-1.7879,0-5.6159,0.0044-8.5068,0.0098l-5.2562,0.0098L0.1752,8.4455z M3.7309,8.7589C3.731,8.2139,3.702,4.5048,3.6925,3.8498L3.6832,3.2124L2.9761,3.2231c-0.3889,0.0059-0.709,0.0125-0.7112,0.0146C2.2593,3.2429,2.2884,7.5045,2.2999,8.3696l0.0092,0.6942h0.7108h0.7108L3.7309,8.7589L3.7309,8.7589z M15.0682,8.9708c0.0116-0.0116-0.0206-5.4879-0.0335-5.6931l-0.0086-0.1369l-0.7026,0.0047c-0.3864,0.0026-0.7058,0.008-0.7097,0.012c-0.0067,0.0069,0.0045,1.8862,0.0275,4.6263l0.0102,1.2104l0.7033-0.0067C14.7417,8.9838,15.0627,8.9763,15.0682,8.9708z"  gorn="0.114.0.0.0.10" connector-curvature="0"/>
                    <path id="path596_1_" d="M2.2708,4.5974c-0.005-0.0525-0.0091-0.3774-0.0091-0.722L2.2616,3.2489l0.0551-0.0071C2.3903,3.2324,2.7963,3.225,3.284,3.2242l0.398-0.0006l0.0091,0.5216c0.005,0.2869,0.0051,0.6157,0.0001,0.7307L3.6822,4.685L2.981,4.6889l-0.7012,0.004L2.2708,4.5974z"  gorn="0.114.0.0.0.11" connector-curvature="0"/>
                    <path id="path598_1_" d="M13.6283,4.4114c-0.0053-0.1104-0.0096-0.4376-0.0096-0.7273l0.0001-0.5266l0.1065-0.0034c0.0586-0.0019,0.3759-0.0035,0.7052-0.0037l0.5986-0.0002l0.0016,0.0955c0.0009,0.0525,0.0026,0.3814,0.0038,0.7309l0.0022,0.6354l-0.6993,0l-0.6993,0L13.6283,4.4114z"  gorn="0.114.0.0.0.12" connector-curvature="0"/>
                    <g transform="matrix(2.535182e-06 1 -1 2.535182e-06 17.729 13.7034)" >
                        <ellipse rx="2.0127" ry="2.0127" id="connector21pin" cy="15.7162" cx="2.0128"  gorn="0.114.0.0.0.13.0"/>
                    </g>
                    <g transform="matrix(2.535182e-06 1 -1 2.535182e-06 22.2645 9.168)" >
                        <ellipse rx="2.0127" fill="#FF0000" ry="2.0127" id="connector22pin" cy="15.7162" cx="6.5482"  gorn="0.114.0.0.0.14.0"/>
                    </g>
                    <g transform="matrix(2.535182e-06 1 -1 2.535182e-06 26.7999 4.6325)" >
                        <ellipse rx="2.0127" fill="#0000FF" ry="2.0127" id="connector23pin" cy="15.7162" cx="11.0837"  gorn="0.114.0.0.0.15.0"/>
                    </g>
                    <g transform="matrix(2.535182e-06 1 -1 2.535182e-06 31.3353 0.0971)" >
                        <ellipse rx="2.0127" fill="#FFFF00" ry="2.0127" id="connector24pin" cy="15.7162" cx="15.6191"  gorn="0.114.0.0.0.16.0"/>
                    </g>
                </g>
            </g>
        </g>
    </g>
    <g transform="matrix(1, 0, 0, 1, 4.266, 17.8925)" >
        <g id="_x30_603-led-green"  gorn="0.115.0">
            <g transform="matrix(0, -1, 1, 0, -1.1335, 3.4015)" >
                <g >
                    <path fill="#DCDCDC" d="M2.268,3.277v3.955c0,0.16-0.13,0.29-0.29,0.29H0.29C0.13,7.522,0,7.392,0,7.232V3.277c0-0.16,0.13-0.29,0.29-0.29h1.687C2.138,2.987,2.268,3.117,2.268,3.277z" />
                    <g transform="matrix(-2.535182e-06 -1 1 -2.535182e-06 -4.1205 6.3887)" >
                        <rect height="2.268" fill="#00FF00" x="0.0001" width="2.268"  y="4.1206"/>
                    </g>
                    <circle r="0.354" fill="#00B400" cy="5.255" cx="1.134" />
                </g>
            </g>
        </g>
    </g>
    <g transform="matrix(1, 0, 0, 1, 52.6165, 43.8121)" >
        <g id="sot363"  gorn="0.116.0">
            <g transform="matrix(0, -1, 1, 0, 0.567, 6.52)" >
                <g >
                    <g >
                        <g transform="matrix(-2.535182e-06 -1 1 -2.535182e-06 -1.711 10.216)" >
                            <rect height="0.709" fill="#DCDCDC" x="1.276" width="5.953"  y="5.609"/>
                        </g>
                        <g transform="matrix(-2.535182e-06 -1 1 -2.535182e-06 0.1321 12.059)" >
                            <rect height="0.709" fill="#DCDCDC" x="3.119" width="5.953"  y="5.609"/>
                        </g>
                        <g transform="matrix(-2.535182e-06 -1 1 -2.535182e-06 -3.553 8.374)" >
                            <rect height="0.709" fill="#DCDCDC" x="-0.566" width="5.953"  y="5.609"/>
                        </g>
                        <g transform="matrix(-2.535182e-06 -1 1 -2.535182e-06 -1.711 10.216)" >
                            <rect height="5.669" fill="#303030" x="2.481" width="3.543"  y="3.129"/>
                        </g>
                    </g>
                </g>
            </g>
        </g>
    </g>
    <g transform="matrix(1, 0, 0, 1, 3.1325, 15.426)" >
        <g id="_x30_603-res"  gorn="0.117.0">
            <path fill="#DCDCDC" d="M7.232,2.268H3.277c-0.16,0-0.29-0.13-0.29-0.291V0.29c0-0.16,0.13-0.29,0.29-0.29h3.955c0.16,0,0.29,0.13,0.29,0.29v1.687C7.522,2.138,7.392,2.268,7.232,2.268z" />
            <rect height="2.268" fill="#333333" x="4.121" width="2.268"  y="0"/>
        </g>
    </g>
    <g transform="matrix(1, 0, 0, 1, 53.0645, 16.4525)" >
        <g id="respack_4x0603"  gorn="0.118.0">
            <g transform="matrix(-1, 0, 0, -1, 9.07099, 4.535)" >
                <g >
                    <g >
                        <rect height="4.535" fill="#DCDCDC" x="-2.987" width="1.843"  y="0"/>
                        <rect height="4.535" fill="#DCDCDC" x="-0.294" width="1.417"  y="0"/>
                        <rect height="4.535" fill="#DCDCDC" x="1.974" width="1.417"  y="0"/>
                        <rect height="4.535" fill="#DCDCDC" x="4.241" width="1.843"  y="0"/>
                        <rect height="2.835" fill="#303030" x="-2.987" width="9.071"  y="0.85"/>
                    </g>
                </g>
            </g>
        </g>
    </g>
    <g transform="matrix(1, 0, 0, 1, 12.0075, 1.97402)" >
        <g id="adafruit_3.5mm"  gorn="0.119.0">
            <path fill="#DCDCDC" d="M14.9428,2.6915c-0.032-0.2-0.141-0.257-0.403-0.341c-0.199-0.064-1.533-0.489-1.533-0.489s-0.93-0.351-1.619,0.146c-0.093,0.066-0.189,0.143-0.286,0.224c0.082-0.097,0.158-0.193,0.224-0.286c0.495-0.69,0.143-1.619,0.143-1.619s-0.427-1.334-0.492-1.533c-0.085-0.262-0.142-0.37-0.342-0.402c-0.2-0.032-0.288,0.054-0.449,0.277c-0.122,0.17-0.939,1.307-0.939,1.307s-0.621,0.777-0.361,1.586c0.034,0.109,0.077,0.224,0.125,0.341c-0.067-0.108-0.135-0.209-0.203-0.302c-0.503-0.684-1.496-0.636-1.496-0.636s-1.4-0.006-1.61-0.006c-0.275-0.001-0.396,0.02-0.488,0.201c-0.091,0.181-0.037,0.291,0.126,0.513c0.124,0.169,0.953,1.297,0.953,1.297s0.546,0.83,1.395,0.834c0.114,0,0.236-0.005,0.362-0.014c-0.122,0.03-0.24,0.064-0.348,0.1c-0.806,0.267-1.067,1.226-1.067,1.226s-0.438,1.33-0.503,1.529c-0.086,0.261-0.103,0.383,0.04,0.526c0.144,0.143,0.265,0.126,0.526,0.04c0.199-0.065,1.528-0.506,1.528-0.506s0.958-0.263,1.224-1.07c0.036-0.108,0.069-0.225,0.1-0.348c-0.009,0.126-0.014,0.248-0.013,0.362c0.005,0.849,0.836,1.394,0.836,1.394s1.13,0.827,1.298,0.951c0.223,0.162,0.333,0.216,0.514,0.124c0.181-0.092,0.201-0.213,0.2-0.488c-0.001-0.21-0.009-1.61-0.009-1.61s0.047-0.993-0.639-1.495c-0.092-0.067-0.194-0.135-0.301-0.202c0.117,0.047,0.232,0.09,0.34,0.124c0.81,0.258,1.584-0.364,1.584-0.364s1.136-0.819,1.306-0.941C14.8888,2.9805,14.9748,2.8925,14.9428,2.6915z M10.1208,1.6605c0.152,0.024,0.228,0.349,0.169,0.726s-0.231,0.662-0.384,0.638s-0.229-0.349-0.169-0.725C9.7958,1.9225,9.9678,1.6365,10.1208,1.6605z M8.1648,2.6595c0.07-0.138,0.402-0.11,0.742,0.063c0.34,0.173,0.558,0.425,0.488,0.563c-0.07,0.138-0.402,0.11-0.742-0.063C8.3128,3.0495,8.0948,2.7975,8.1648,2.6595z M9.1958,4.5375c-0.269,0.27-0.577,0.4-0.686,0.291c-0.109-0.109,0.02-0.416,0.29-0.686c0.269-0.27,0.576-0.4,0.686-0.291C9.5948,3.9605,9.4648,4.2675,9.1958,4.5375z M10.6798,5.1705c-0.138,0.07-0.39-0.148-0.563-0.487c-0.174-0.34-0.203-0.673-0.065-0.743c0.138-0.07,0.39,0.148,0.563,0.487C10.7878,4.7675,10.8168,5.0995,10.6798,5.1705z M11.0368,3.5975c-0.377,0.06-0.701-0.015-0.726-0.168c-0.024-0.153,0.262-0.325,0.638-0.385c0.377-0.06,0.701,0.015,0.726,0.168C11.6988,3.3655,11.4138,3.5375,11.0368,3.5975z" />
        </g>
    </g>
    <g transform="matrix(1, 0, 0, 1, 12.09, 43.333)" >
        <g id="sot23-5"  gorn="0.120.0">
            <g >
                <rect height="7.654" fill="#DCDCDC" x="3.837" width="1.134"  y="0"/>
                <rect height="7.654" fill="#DCDCDC" x="9.223" width="1.134"  y="0"/>
                <rect height="3.118" fill="#DCDCDC" x="6.53" width="1.134"  y="4.535"/>
                <rect height="4.535" fill="#303030" x="2.987" width="8.22"  y="1.559"/>
            </g>
        </g>
    </g>
    <g >
        <rect height="28.6299" fill="#004F00" x="24.6794" width="28.6299"  y="15.9251"/>
        <path fill="#7A7A7A" d="M48.8327,42.2873H29.4482c-1.3006,0-2.355-1.0544-2.355-2.355V20.5478c0-1.3006,1.0544-2.355,2.355-2.355h19.3845c1.3006,0,2.355,1.0544,2.355,2.355v19.3845C51.1877,41.2329,50.1333,42.2873,48.8327,42.2873z" />
        <path fill="#9E9E9E" d="M48.8428,41.8438H29.4381c-1.0501,0-1.9014-0.8513-1.9014-1.9014V20.5376c0-1.0501,0.8513-1.9014,1.9014-1.9014h19.4048c1.0501,0,1.9014,0.8513,1.9014,1.9014v19.4048C50.7442,40.9926,49.893,41.8438,48.8428,41.8438z" />
        <path fill="#FFFFFF" d="M46.3423,39.2523H31.9386c-0.9999,0-1.8104-0.8105-1.8104-1.8104V23.0382c0-0.9999,0.8105-1.8104,1.8104-1.8104h14.4037c0.9999,0,1.8104,0.8105,1.8104,1.8104v14.4037C48.1527,38.4417,47.3422,39.2523,46.3423,39.2523z" />
        <g transform="matrix(0.7071 0.7071 -0.7071 0.7071 25.3509 -15.7256)" >
            <rect height="8.2128" fill="#9E9E9E" x="29.9453" width="3.4252"  y="18.6321"/>
        </g>
    </g>
</svg>
