<?xml version='1.0' encoding='utf-8'?>
<!-- Generator: Adobe Illustrator 23.0.3, SVG Export Plug-In . SVG Version: 6.00 Build 0)  -->
<svg xmlns="http://www.w3.org/2000/svg" x="0px" y="0px" version="1.1" gorn="0" xmlns:xml="http://www.w3.org/XML/1998/namespace" width="1.4in" height="1.5in" viewBox="0 0 100.8 108"  enable-background="new 0 0 100.8 108" xml:space="preserve" id="Layer_1">
    <desc >
        <referenceFile >1.3in SPI rev C_breadboard.svg</referenceFile>
    </desc>
    <desc >Fritzing breadboard generated by brd2svg</desc>
    <g gorn="0.2"  id="breadboard">
        <g gorn="0.2.0"  id="icon">
            <path  d="M14.4,93.6v7.2c0,3.9765-3.2236,7.2-7.2,7.2S0,104.7765,0,100.8V7.2C0,3.2236,3.2235,0,7.2,0c0,0,0,0,0,0c3.9764,0,7.2,3.2235,7.2,7.2l0,0v7.2h72V7.2c0-3.9764,3.2235-7.2,7.2-7.2c3.9764,0,7.2,3.2235,7.2,7.2c0,0,0,0,0,0v93.6c0,3.9765-3.2235,7.2-7.2,7.2l0,0c-3.9764,0-7.2-3.2235-7.2-7.2v-7.2H14.4 M5.7827,18c0,0.7828,0.6346,1.4173,1.4173,1.4173S8.6173,18.7828,8.6173,18S7.9828,16.5827,7.2,16.5827S5.7827,17.2172,5.7827,18z M5.7827,25.2c0,0.7828,0.6346,1.4173,1.4173,1.4173S8.6173,25.9828,8.6173,25.2S7.9828,23.7827,7.2,23.7827C6.4172,23.7827,5.7827,24.4172,5.7827,25.2C5.7827,25.2,5.7827,25.2,5.7827,25.2z M5.7827,32.4c0,0.7828,0.6346,1.4173,1.4173,1.4173S8.6173,33.1828,8.6173,32.4c0-0.7828-0.6346-1.4173-1.4173-1.4173S5.7827,31.6172,5.7827,32.4z M5.7827,39.6c0,0.7828,0.6346,1.4173,1.4173,1.4173S8.6173,40.3828,8.6173,39.6S7.9828,38.1827,7.2,38.1827S5.7827,38.8172,5.7827,39.6z M5.7827,46.8c0,0.7828,0.6346,1.4173,1.4173,1.4173S8.6173,47.5828,8.6173,46.8S7.9828,45.3827,7.2,45.3827S5.7827,46.0172,5.7827,46.8z M5.7827,54c0,0.7828,0.6346,1.4173,1.4173,1.4173S8.6173,54.7828,8.6173,54S7.9828,52.5827,7.2,52.5827S5.7827,53.2172,5.7827,54z M5.7827,61.2c0,0.7828,0.6346,1.4173,1.4173,1.4173S8.6173,61.9828,8.6173,61.2S7.9828,59.7827,7.2,59.7827S5.7827,60.4172,5.7827,61.2z M5.7827,68.4c0,0.7828,0.6346,1.4173,1.4173,1.4173S8.6173,69.1828,8.6173,68.4c0-0.7828-0.6346-1.4173-1.4173-1.4173S5.7827,67.6172,5.7827,68.4z M5.7827,75.6c0,0.7828,0.6346,1.4173,1.4173,1.4173S8.6173,76.3828,8.6173,75.6c0-0.7828-0.6346-1.4173-1.4173-1.4173S5.7827,74.8172,5.7827,75.6z M5.7827,82.8c0,0.7828,0.6346,1.4173,1.4173,1.4173S8.6173,83.5828,8.6173,82.8c0-0.7828-0.6346-1.4173-1.4173-1.4173S5.7827,82.0172,5.7827,82.8z M5.7827,90c0,0.7828,0.6346,1.4173,1.4173,1.4173S8.6173,90.7828,8.6173,90c0-0.7828-0.6346-1.4173-1.4173-1.4173S5.7827,89.2172,5.7827,90z M90.0569,7.2c-0.0034,1.9569,1.5802,3.5461,3.5371,3.5495c1.9569,0.0034,3.5461-1.5802,3.5495-3.5371c0-0.0041,0-0.0083,0-0.0124c0.0034-1.9569-1.5802-3.5461-3.5371-3.5495c-1.9569-0.0034-3.5461,1.5802-3.5495,3.5371C90.0569,7.1917,90.0569,7.1959,90.0569,7.2z M90.0569,100.8c-0.0034,1.9569,1.5802,3.5461,3.5371,3.5495c1.9569,0.0034,3.5461-1.5802,3.5495-3.5371c0-0.0042,0-0.0083,0-0.0125c0.0034-1.9569-1.5802-3.5461-3.5371-3.5495c-1.9569-0.0034-3.5461,1.5802-3.5495,3.5371C90.0569,100.7917,90.0569,100.7959,90.0569,100.8z M3.6567,7.2c-0.0033,1.9569,1.5804,3.546,3.5373,3.5493S10.74,9.169,10.7433,7.212c0-0.004,0-0.008,0-0.012c0.0033-1.9569-1.5804-3.546-3.5374-3.5493C5.249,3.6475,3.66,5.2312,3.6567,7.1881C3.6567,7.1921,3.6567,7.196,3.6567,7.2z M3.6567,100.8c-0.0033,1.9569,1.5804,3.546,3.5373,3.5493c1.9569,0.0033,3.546-1.5804,3.5493-3.5373c0-0.004,0-0.008,0-0.012c0.0033-1.9569-1.5804-3.546-3.5374-3.5493c-1.9569-0.0033-3.546,1.5804-3.5493,3.5374C3.6567,100.7921,3.6567,100.796,3.6567,100.8z"/>
            <g >
                <title >layer 21</title>
                <g >
                    <title >text:Vin</title>
                    <g transform="matrix(1, 0, 0, 1, 3.6504, 21.6)" >
                        <g >
                            <g >
                                <g transform="rotate(270)" >
                                    <g >
                                        <g >
                                            <g transform="matrix(1 0 0 1 0.0004 -9.375002e-06)" >
                                                <g >
                                                    <text font-family="'OCRA'" fill="#FFFFFF"  font-size="2.67264">Vin</text>
                                                </g>
                                            </g>
                                        </g>
                                    </g>
                                </g>
                            </g>
                        </g>
                    </g>
                </g>
                <g >
                    <title >text:3v3</title>
                    <g transform="matrix(1, 0, 0, 1, 13.5504, 20.88)" >
                        <g >
                            <g >
                                <g transform="rotate(270)" >
                                    <g >
                                        <g >
                                            <g transform="matrix(1 0 0 1 -7.246 1.503906e-05)" >
                                                <g >
                                                    <text font-family="'OCRA'" fill="#FFFFFF"  font-size="2.67264">3v3</text>
                                                </g>
                                            </g>
                                        </g>
                                    </g>
                                </g>
                            </g>
                        </g>
                    </g>
                </g>
                <g >
                    <title >text:Gnd</title>
                    <g transform="matrix(1, 0, 0, 1, 3.6504, 28.44)" >
                        <g >
                            <g >
                                <g transform="rotate(270)" >
                                    <g >
                                        <g >
                                            <g transform="matrix(1 0 0 1 -7.2465 -9.375002e-06)" >
                                                <g >
                                                    <text font-family="'OCRA'" fill="#FFFFFF"  font-size="2.67264">Gnd</text>
                                                </g>
                                            </g>
                                        </g>
                                    </g>
                                </g>
                            </g>
                        </g>
                    </g>
                </g>
                <g >
                    <title >text:SCK</title>
                    <g transform="matrix(1, 0, 0, 1, 13.5504, 35.28)" >
                        <g >
                            <g >
                                <g transform="rotate(270)" >
                                    <g >
                                        <g >
                                            <g transform="matrix(1 0 0 1 -7.2464 1.503906e-05)" >
                                                <g >
                                                    <text font-family="'OCRA'" fill="#FFFFFF"  font-size="2.67264">SCK</text>
                                                </g>
                                            </g>
                                        </g>
                                    </g>
                                </g>
                            </g>
                        </g>
                    </g>
                </g>
                <g >
                    <title >text:SO</title>
                    <g transform="matrix(1, 0, 0, 1, 3.6504, 43.92)" >
                        <g >
                            <g >
                                <g transform="rotate(270)" >
                                    <g >
                                        <g >
                                            <g transform="matrix(1 0 0 1 -4.831 -9.375002e-06)" >
                                                <g >
                                                    <text font-family="'OCRA'" fill="#FFFFFF"  font-size="2.67264">SO</text>
                                                </g>
                                            </g>
                                        </g>
                                    </g>
                                </g>
                            </g>
                        </g>
                    </g>
                </g>
                <g >
                    <title >text:SI</title>
                    <g transform="matrix(1, 0, 0, 1, 13.5504, 51.12)" >
                        <g >
                            <g >
                                <g transform="rotate(270)" >
                                    <g >
                                        <g >
                                            <g transform="matrix(1 0 0 1 -4.8312 1.503906e-05)" >
                                                <g >
                                                    <text font-family="'OCRA'" fill="#FFFFFF"  font-size="2.67264">SI</text>
                                                </g>
                                            </g>
                                        </g>
                                    </g>
                                </g>
                            </g>
                        </g>
                    </g>
                </g>
                <g >
                    <title >text:TCS</title>
                    <g transform="matrix(1, 0, 0, 1, 3.6504, 57.24)" >
                        <g >
                            <g >
                                <g transform="rotate(270)" >
                                    <g >
                                        <g >
                                            <g transform="matrix(1 0 0 1 -7.2463 -9.375002e-06)" >
                                                <g >
                                                    <text font-family="'OCRA'" fill="#FFFFFF"  font-size="2.67264">TCS</text>
                                                </g>
                                            </g>
                                        </g>
                                    </g>
                                </g>
                            </g>
                        </g>
                    </g>
                </g>
                <g >
                    <title >text:RST</title>
                    <g transform="matrix(1, 0, 0, 1, 13.5504, 63.72)" >
                        <g >
                            <g >
                                <g transform="rotate(270)" >
                                    <g >
                                        <g >
                                            <g transform="matrix(1 0 0 1 -7.2458 1.503906e-05)" >
                                                <g >
                                                    <text font-family="'OCRA'" fill="#FFFFFF"  font-size="2.67264">RST</text>
                                                </g>
                                            </g>
                                        </g>
                                    </g>
                                </g>
                            </g>
                        </g>
                    </g>
                </g>
                <g >
                    <title >text:D/C</title>
                    <g transform="matrix(1, 0, 0, 1, 4.0104, 71.28)" >
                        <g >
                            <g >
                                <g transform="rotate(270)" >
                                    <g >
                                        <g >
                                            <g transform="matrix(1 0 0 1 -7.2464 -2.402344e-05)" >
                                                <g >
                                                    <text font-family="'OCRA'" fill="#FFFFFF"  font-size="2.67264">D/C</text>
                                                </g>
                                            </g>
                                        </g>
                                    </g>
                                </g>
                            </g>
                        </g>
                    </g>
                </g>
                <g >
                    <title >text:CCS</title>
                    <g transform="matrix(1, 0, 0, 1, 13.5504, 78.48)" >
                        <g >
                            <g >
                                <g transform="rotate(270)" >
                                    <g >
                                        <g >
                                            <g transform="matrix(1 0 0 1 -7.2466 1.503906e-05)" >
                                                <g >
                                                    <text font-family="'OCRA'" fill="#FFFFFF"  font-size="2.67264">CCS</text>
                                                </g>
                                            </g>
                                        </g>
                                    </g>
                                </g>
                            </g>
                        </g>
                    </g>
                </g>
                <g >
                    <title >text:Lite</title>
                    <g transform="matrix(1, 0, 0, 1, 3.6504, 84.96)" >
                        <g >
                            <g >
                                <g transform="rotate(270)" >
                                    <g >
                                        <g >
                                            <g transform="matrix(1 0 0 1 -9.6611 -9.375002e-06)" >
                                                <g >
                                                    <text font-family="'OCRA'" fill="#FFFFFF"  font-size="2.67264">Lite</text>
                                                </g>
                                            </g>
                                        </g>
                                    </g>
                                </g>
                            </g>
                        </g>
                    </g>
                </g>
                <g >
                    <title >element:C1</title>
                    <g >
                        <title >package:0805-NO</title>
                    </g>
                </g>
                <g >
                    <title >element:C2</title>
                    <g >
                        <title >package:0805-NO</title>
                    </g>
                </g>
                <g >
                    <title >element:C4</title>
                    <g >
                        <title >package:0603-NO</title>
                    </g>
                </g>
                <g >
                    <title >element:DISPLAY1</title>
                    <g >
                        <title >package:TFT_1.3IN_240X240_24P</title>
                        <line y1="91.345" y2="17.0773" x1="16.1093" x2="16.1093" stroke="#FFFFFF" stroke-width="0.36" fill="none" stroke-linecap="round" />
                        <line y1="17.0773" y2="17.0773" x1="16.1093" x2="98.9942" stroke="#FFFFFF" stroke-width="0.36" fill="none" stroke-linecap="round" />
                        <line y1="17.0773" y2="91.345" x1="98.9942" x2="98.9942" stroke="#FFFFFF" stroke-width="0.36" fill="none" stroke-linecap="round" />
                        <line y1="91.345" y2="91.345" x1="98.9942" x2="16.1093" stroke="#FFFFFF" stroke-width="0.36" fill="none" stroke-linecap="round" />
                        <line y1="87.3763" y2="84.4474" x1="19.6526" x2="19.6526" stroke="#FFFFFF" stroke-width="0.36" fill="none" stroke-linecap="round" />
                        <line y1="81.6127" y2="78.6838" x1="19.6526" x2="19.6526" stroke="#FFFFFF" stroke-width="0.36" fill="none" stroke-linecap="round" />
                        <line y1="75.8491" y2="72.9202" x1="19.6526" x2="19.6526" stroke="#FFFFFF" stroke-width="0.36" fill="none" stroke-linecap="round" />
                        <line y1="70.0852" y2="67.1561" x1="19.6526" x2="19.6526" stroke="#FFFFFF" stroke-width="0.36" fill="none" stroke-linecap="round" />
                        <line y1="64.3214" y2="61.3923" x1="19.6526" x2="19.6526" stroke="#FFFFFF" stroke-width="0.36" fill="none" stroke-linecap="round" />
                        <line y1="58.5577" y2="55.6285" x1="19.6526" x2="19.6526" stroke="#FFFFFF" stroke-width="0.36" fill="none" stroke-linecap="round" />
                        <line y1="52.7939" y2="49.8648" x1="19.6526" x2="19.6526" stroke="#FFFFFF" stroke-width="0.36" fill="none" stroke-linecap="round" />
                        <line y1="47.03" y2="44.1009" x1="19.6526" x2="19.6526" stroke="#FFFFFF" stroke-width="0.36" fill="none" stroke-linecap="round" />
                        <line y1="41.2663" y2="38.3372" x1="19.6526" x2="19.6526" stroke="#FFFFFF" stroke-width="0.36" fill="none" stroke-linecap="round" />
                        <line y1="35.5026" y2="32.5734" x1="19.6526" x2="19.6526" stroke="#FFFFFF" stroke-width="0.36" fill="none" stroke-linecap="round" />
                        <line y1="29.7387" y2="26.8096" x1="19.6526" x2="19.6526" stroke="#FFFFFF" stroke-width="0.36" fill="none" stroke-linecap="round" />
                        <line y1="23.975" y2="21.0458" x1="19.6526" x2="19.6526" stroke="#FFFFFF" stroke-width="0.36" fill="none" stroke-linecap="round" />
                        <line y1="21.0458" y2="21.0458" x1="19.6526" x2="22.5817" stroke="#FFFFFF" stroke-width="0.36" fill="none" stroke-linecap="round" />
                        <line y1="21.0458" y2="21.0458" x1="25.4164" x2="28.3455" stroke="#FFFFFF" stroke-width="0.36" fill="none" stroke-linecap="round" />
                        <line y1="21.0458" y2="21.0458" x1="31.1802" x2="34.1093" stroke="#FFFFFF" stroke-width="0.36" fill="none" stroke-linecap="round" />
                        <line y1="21.0458" y2="21.0458" x1="36.9439" x2="39.8731" stroke="#FFFFFF" stroke-width="0.36" fill="none" stroke-linecap="round" />
                        <line y1="21.0458" y2="21.0458" x1="42.7077" x2="45.6368" stroke="#FFFFFF" stroke-width="0.36" fill="none" stroke-linecap="round" />
                        <line y1="21.0458" y2="21.0458" x1="48.4715" x2="51.4007" stroke="#FFFFFF" stroke-width="0.36" fill="none" stroke-linecap="round" />
                        <line y1="21.0458" y2="21.0458" x1="54.2353" x2="57.1644" stroke="#FFFFFF" stroke-width="0.36" fill="none" stroke-linecap="round" />
                        <line y1="21.0458" y2="21.0458" x1="59.999" x2="62.9282" stroke="#FFFFFF" stroke-width="0.36" fill="none" stroke-linecap="round" />
                        <line y1="21.0458" y2="21.0458" x1="65.7629" x2="68.692" stroke="#FFFFFF" stroke-width="0.36" fill="none" stroke-linecap="round" />
                        <line y1="21.0458" y2="21.0458" x1="71.5266" x2="74.4559" stroke="#FFFFFF" stroke-width="0.36" fill="none" stroke-linecap="round" />
                        <line y1="21.0458" y2="21.0458" x1="77.2906" x2="80.2195" stroke="#FFFFFF" stroke-width="0.36" fill="none" stroke-linecap="round" />
                        <line y1="21.0458" y2="21.0458" x1="83.0542" x2="85.9831" stroke="#FFFFFF" stroke-width="0.36" fill="none" stroke-linecap="round" />
                        <line y1="21.0458" y2="23.975" x1="85.9831" x2="85.9831" stroke="#FFFFFF" stroke-width="0.36" fill="none" stroke-linecap="round" />
                        <line y1="26.8096" y2="29.7387" x1="85.9831" x2="85.9831" stroke="#FFFFFF" stroke-width="0.36" fill="none" stroke-linecap="round" />
                        <line y1="32.5734" y2="35.5026" x1="85.9831" x2="85.9831" stroke="#FFFFFF" stroke-width="0.36" fill="none" stroke-linecap="round" />
                        <line y1="38.3372" y2="41.2663" x1="85.9831" x2="85.9831" stroke="#FFFFFF" stroke-width="0.36" fill="none" stroke-linecap="round" />
                        <line y1="44.1009" y2="47.03" x1="85.9831" x2="85.9831" stroke="#FFFFFF" stroke-width="0.36" fill="none" stroke-linecap="round" />
                        <line y1="49.8648" y2="52.7939" x1="85.9831" x2="85.9831" stroke="#FFFFFF" stroke-width="0.36" fill="none" stroke-linecap="round" />
                        <line y1="55.6285" y2="58.5577" x1="85.9831" x2="85.9831" stroke="#FFFFFF" stroke-width="0.36" fill="none" stroke-linecap="round" />
                        <line y1="61.3923" y2="64.3214" x1="85.9831" x2="85.9831" stroke="#FFFFFF" stroke-width="0.36" fill="none" stroke-linecap="round" />
                        <line y1="67.1561" y2="70.0852" x1="85.9831" x2="85.9831" stroke="#FFFFFF" stroke-width="0.36" fill="none" stroke-linecap="round" />
                        <line y1="72.9202" y2="75.8491" x1="85.9831" x2="85.9831" stroke="#FFFFFF" stroke-width="0.36" fill="none" stroke-linecap="round" />
                        <line y1="78.6838" y2="81.6127" x1="85.9831" x2="85.9831" stroke="#FFFFFF" stroke-width="0.36" fill="none" stroke-linecap="round" />
                        <line y1="84.4474" y2="87.3763" x1="85.9831" x2="85.9831" stroke="#FFFFFF" stroke-width="0.36" fill="none" stroke-linecap="round" />
                        <line y1="87.3763" y2="87.3763" x1="85.9831" x2="83.0542" stroke="#FFFFFF" stroke-width="0.36" fill="none" stroke-linecap="round" />
                        <line y1="87.3763" y2="87.3763" x1="80.2195" x2="77.2906" stroke="#FFFFFF" stroke-width="0.36" fill="none" stroke-linecap="round" />
                        <line y1="87.3763" y2="87.3763" x1="74.4559" x2="71.5266" stroke="#FFFFFF" stroke-width="0.36" fill="none" stroke-linecap="round" />
                        <line y1="87.3763" y2="87.3763" x1="68.692" x2="65.7629" stroke="#FFFFFF" stroke-width="0.36" fill="none" stroke-linecap="round" />
                        <line y1="87.3763" y2="87.3763" x1="62.9282" x2="59.999" stroke="#FFFFFF" stroke-width="0.36" fill="none" stroke-linecap="round" />
                        <line y1="87.3763" y2="87.3763" x1="57.1644" x2="54.2353" stroke="#FFFFFF" stroke-width="0.36" fill="none" stroke-linecap="round" />
                        <line y1="87.3763" y2="87.3763" x1="51.4007" x2="48.4715" stroke="#FFFFFF" stroke-width="0.36" fill="none" stroke-linecap="round" />
                        <line y1="87.3763" y2="87.3763" x1="45.6368" x2="42.7077" stroke="#FFFFFF" stroke-width="0.36" fill="none" stroke-linecap="round" />
                        <line y1="87.3763" y2="87.3763" x1="39.8731" x2="36.9439" stroke="#FFFFFF" stroke-width="0.36" fill="none" stroke-linecap="round" />
                        <line y1="87.3763" y2="87.3763" x1="34.1093" x2="31.1802" stroke="#FFFFFF" stroke-width="0.36" fill="none" stroke-linecap="round" />
                        <line y1="87.3763" y2="87.3763" x1="28.3455" x2="25.4164" stroke="#FFFFFF" stroke-width="0.36" fill="none" stroke-linecap="round" />
                        <line y1="87.3763" y2="87.3763" x1="22.5817" x2="19.6526" stroke="#FFFFFF" stroke-width="0.36" fill="none" stroke-linecap="round" />
                    </g>
                </g>
                <g >
                    <title >element:IC2</title>
                    <g >
                        <title >package:SOT23-5L</title>
                    </g>
                </g>
                <g >
                    <title >element:IC4</title>
                    <g >
                        <title >package:SOT23</title>
                    </g>
                </g>
                <g >
                    <title >element:JP1</title>
                    <g >
                        <title >package:1X11_ROUND_76</title>
                    </g>
                </g>
                <g >
                    <title >element:Q2</title>
                    <g >
                        <title >package:MICROSD</title>
                    </g>
                </g>
                <g >
                    <title >element:Q3</title>
                    <g >
                        <title >package:SOT23-WIDE</title>
                    </g>
                </g>
                <g >
                    <title >element:R1</title>
                    <g >
                        <title >package:0603-NO</title>
                    </g>
                </g>
                <g >
                    <title >element:R2</title>
                    <g >
                        <title >package:0603-NO</title>
                    </g>
                </g>
                <g >
                    <title >element:R3</title>
                    <g >
                        <title >package:0603-NO</title>
                    </g>
                </g>
                <g >
                    <title >element:R4</title>
                    <g >
                        <title >package:0603-NO</title>
                    </g>
                </g>
                <g >
                    <title >element:R5</title>
                    <g >
                        <title >package:0603-NO</title>
                    </g>
                </g>
                <g >
                    <title >element:TP1</title>
                    <g >
                        <title >package:TESTPOINT_ROUND_1.5MM</title>
                    </g>
                </g>
                <g >
                    <title >element:U$2</title>
                    <g >
                        <title >package:PCBFEAT-REV-040</title>
                    </g>
                </g>
                <g >
                    <title >element:U$3</title>
                    <g >
                        <title >package:FIDUCIAL_1MM</title>
                    </g>
                </g>
                <g >
                    <title >element:U$4</title>
                    <g >
                        <title >package:FIDUCIAL_1MM</title>
                    </g>
                </g>
                <g >
                    <title >element:U$5</title>
                    <g >
                        <title >package:FIDUCIAL_1MM</title>
                    </g>
                </g>
                <g >
                    <title >element:U$7</title>
                    <g >
                        <title >package:MOUNTINGHOLE_2.5_PLATED</title>
                    </g>
                </g>
                <g >
                    <title >element:U$8</title>
                    <g >
                        <title >package:MOUNTINGHOLE_2.5_PLATED</title>
                    </g>
                </g>
                <g >
                    <title >element:U$9</title>
                    <g >
                        <title >package:MOUNTINGHOLE_2.5_PLATED</title>
                    </g>
                </g>
                <g >
                    <title >element:U$10</title>
                    <g >
                        <title >package:MOUNTINGHOLE_2.5_PLATED</title>
                    </g>
                </g>
                <g >
                    <title >element:U1</title>
                    <g >
                        <title >package:TSSOP16</title>
                    </g>
                </g>
            </g>
            <circle cx="7.2" gorn="0.2.0.2" cy="18" stroke="#9A916C" stroke-width="1.3187" fill="none" r="2.0767"  id="connector5pin"/>
            <circle cx="7.2" gorn="0.2.0.3" cy="25.2" stroke="#9A916C" stroke-width="1.3187" fill="none" r="2.0767"  id="connector6pin"/>
            <circle cx="7.2" gorn="0.2.0.4" cy="32.4" stroke="#9A916C" stroke-width="1.3187" fill="none" r="2.0767"  id="connector7pin"/>
            <circle cx="7.2" gorn="0.2.0.5" cy="39.6" stroke="#9A916C" stroke-width="1.3187" fill="none" r="2.0767"  id="connector8pin"/>
            <circle cx="7.2" gorn="0.2.0.6" cy="46.8" stroke="#9A916C" stroke-width="1.3187" fill="none" r="2.0767"  id="connector9pin"/>
            <circle cx="7.2" gorn="0.2.0.7" cy="54" stroke="#9A916C" stroke-width="1.3187" fill="none" r="2.0767"  id="connector10pin"/>
            <circle cx="7.2" gorn="0.2.0.8" cy="61.2" stroke="#9A916C" stroke-width="1.3187" fill="none" r="2.0767"  id="connector11pin"/>
            <circle cx="7.2" gorn="0.2.0.9" cy="68.4" stroke="#9A916C" stroke-width="1.3187" fill="none" r="2.0767"  id="connector12pin"/>
            <circle cx="7.2" gorn="0.2.0.10" cy="75.6" stroke="#9A916C" stroke-width="1.3187" fill="none" r="2.0767"  id="connector13pin"/>
            <circle cx="7.2" gorn="0.2.0.11" cy="82.8" stroke="#9A916C" stroke-width="1.3187" fill="none" r="2.0767"  id="connector14pin"/>
            <circle cx="7.2" gorn="0.2.0.12" cy="90" stroke="#9A916C" stroke-width="1.3187" fill="none" r="2.0767"  id="connector15pin"/>
            <circle cx="93.6" gorn="0.2.0.13" cy="7.2" stroke="#9A916C" stroke-width="1.44" fill="none" r="4.2633"  id="connector16pin"/>
            <circle cx="93.6" gorn="0.2.0.14" cy="100.8" stroke="#9A916C" stroke-width="1.44" fill="none" r="4.2633"  id="connector17pin"/>
            <circle cx="7.2" gorn="0.2.0.15" cy="7.2" stroke="#9A916C" stroke-width="1.44" fill="none" r="4.2633"  id="connector18pin"/>
            <circle cx="7.2" gorn="0.2.0.16" cy="100.8" stroke="#9A916C" stroke-width="1.44" fill="none" r="4.2633"  id="connector19pin"/>
        </g>
    </g>
    <g >
        <g transform="matrix(-1.346844e-10 1 -1 -1.346844e-10 110.3754 -2.3754)" >
            <g >
                <rect x="19.3195" y="14.5913" width="74.1118" fill="#DCDCDC" height="78.8173" />
            </g>
        </g>
        <g transform="matrix(-1.391893e-10 1 -1 -1.391893e-10 109.215 -1.215)" >
            <g >
                <rect x="19.4531" y="17.0457" width="71.5238" fill="#0C0C0C" height="73.9085" />
            </g>
        </g>
        <g transform="matrix(-1.391893e-10 1 -1 -1.391893e-10 149.2039 -41.2039)" >
            <g >
                <rect x="59.442" y="50.8351" width="71.5238" fill="#1C1C1C" height="6.3298" />
            </g>
        </g>
        <g transform="matrix(-4.797603e-11 1 -1 -4.797603e-11 150.4583 -39.9496)" >
            <g >
                <rect x="73.4409" y="54.1624" width="43.526" fill="#2B2B2B" height="2.1838" />
            </g>
        </g>
        <rect x="98.3688" y="32.1194" width="2.4312" fill="#2B2B2B" height="47.0551" />
        <rect x="98.3688" y="25.0611" width="2.4312" fill="#2B2B2B" height="4.7055" />
        <g transform="matrix(1 -0.0048 0.0048 1 28.7946 51.0678)" >
            <g >
                <g  enable-background="new    ">
                    <text x="0" y="0" font-family="'DroidSans'" fill="#FFFFFF"  font-size="7.968">1.3" IPS TFT</text>
                    <text x="7.2197" y="11.9521" font-family="'DroidSans'" fill="#FFFFFF"  font-size="7.968">240x240</text>
                </g>
            </g>
        </g>
    </g>
</svg>
