<svg xmlns="http://www.w3.org/2000/svg" width="1200" height="944" viewBox="0 0 1200 944" role="img" aria-labelledby="title desc"><title id="title">ELECHOUSE PN7160 MINI V1: I2C wiring</title><desc id="desc">ELECHOUSE PN7160 MINI V1 I2C only. Identify contact 1 using the manufacturer drawing, not cable colors.</desc><metadata>{&quot;creator&quot;: &quot;Kal / Valleytech Solutions&quot;, &quot;license&quot;: &quot;https://creativecommons.org/licenses/by/4.0/&quot;, &quot;sources&quot;: [{&quot;title&quot;: &quot;ELECHOUSE PN7160 MINI V1 I2C datasheet&quot;, &quot;url&quot;: &quot;https://www.elechouse.com/docs/pn7160-mini-v1-i2c/datasheet.html&quot;, &quot;locator&quot;: &quot;Six-pin host connector and supply/logic distinction&quot;, &quot;checked&quot;: &quot;2026-09-27&quot;, &quot;sha256&quot;: &quot;5e6616cd91454ec95a5295f0c916bba0dbca4e36aed3783be869fd266fc8a91f&quot;, &quot;bytes&quot;: 20349, &quot;format&quot;: &quot;HTML&quot;, &quot;verification&quot;: &quot;Publisher content inspected&quot;}, {&quot;title&quot;: &quot;ELECHOUSE PN7160 MINI V1 quick start&quot;, &quot;url&quot;: &quot;https://www.elechouse.com/docs/pn7160-mini-v1-i2c/quick-start.html&quot;, &quot;locator&quot;: &quot;Host connections and supply-dependent software preset&quot;, &quot;checked&quot;: &quot;2026-09-27&quot;, &quot;sha256&quot;: &quot;cb62530ab27f059512e39d590afbe0bf9e900780f7b6bda320c62997ee2efa2e&quot;, &quot;bytes&quot;: 11437, &quot;format&quot;: &quot;HTML&quot;, &quot;verification&quot;: &quot;Publisher content inspected&quot;}, {&quot;title&quot;: &quot;NXP: PN7160 card emulation, AN13861&quot;, &quot;url&quot;: &quot;https://www.nxp.com/docs/en/application-note/AN13861.pdf&quot;, &quot;locator&quot;: &quot;Card emulation mode, NCI and host application responsibilities&quot;, &quot;checked&quot;: &quot;2026-09-27&quot;, &quot;sha256&quot;: &quot;cb78084964bf4607fbec8f599e771a18276a056e6d62def6535bdbc5b79475de&quot;, &quot;bytes&quot;: 2288099, &quot;format&quot;: &quot;PDF&quot;, &quot;verification&quot;: &quot;Publisher content inspected&quot;}], &quot;review&quot;: &quot;Source documents inspected; independent electrical and bench review pending&quot;}</metadata><g font-family="Arial, Helvetica, sans-serif"><rect width="1200" height="944" fill="#fff"/><rect x="0" y="0" width="1200" height="14" rx="0" fill="#b82736" stroke="#b82736"/><text x="50" y="59" font-size="18" fill="#b82736" font-weight="700" text-anchor="start">BLACK WIRE / WIRING &amp; PROTOCOLS</text><text x="50" y="110" font-size="33" fill="#17222e" font-weight="700" text-anchor="start">PN7160 MINI V1 / six-pin I2C</text><text x="50" y="148" font-size="20" fill="#4d5d6a" font-weight="400" text-anchor="start">3.3 V host logic. Choose the supply and matching software power preset together.</text><rect x="50" y="211" width="345" height="60" rx="12" fill="#f1f5f7" stroke="#d2dae1"/><text x="222.5" y="251" font-size="24" fill="#17222e" font-weight="700" text-anchor="middle">Host / supply</text><rect x="805" y="211" width="345" height="60" rx="12" fill="#f1f5f7" stroke="#d2dae1"/><text x="977.5" y="251" font-size="24" fill="#17222e" font-weight="700" text-anchor="middle">PN7160 MINI V1</text><rect x="50" y="278" width="345" height="57" rx="12" fill="#f7f9fb" stroke="#d2dae1"/><text x="70" y="313" font-size="23" fill="#17222e" font-weight="600" text-anchor="start">SDA</text><rect x="805" y="278" width="345" height="57" rx="12" fill="#f7f9fb" stroke="#d2dae1"/><text x="825" y="313" font-size="23" fill="#17222e" font-weight="600" text-anchor="start">1 SDA</text><text x="600" y="292" font-size="18" fill="#4d5d6a" font-weight="400" text-anchor="middle">Data</text><path d="M 410 315 L 790 315" fill="none" stroke="#007c83" stroke-width="4"/><path d="M 410 315 L 422 308 L 422 322 Z" fill="#007c83"/><path d="M 790 315 L 778 308 L 778 322 Z" fill="#007c83"/><rect x="50" y="353" width="345" height="57" rx="12" fill="#f7f9fb" stroke="#d2dae1"/><text x="70" y="388" font-size="23" fill="#17222e" font-weight="600" text-anchor="start">SCL</text><rect x="805" y="353" width="345" height="57" rx="12" fill="#f7f9fb" stroke="#d2dae1"/><text x="825" y="388" font-size="23" fill="#17222e" font-weight="600" text-anchor="start">2 SCL</text><text x="600" y="367" font-size="18" fill="#4d5d6a" font-weight="400" text-anchor="middle">Clock</text><path d="M 410 390 L 790 390" fill="none" stroke="#007c83" stroke-width="4"/><path d="M 790 390 L 778 383 L 778 397 Z" fill="#007c83"/><rect x="50" y="428" width="345" height="57" rx="12" fill="#f7f9fb" stroke="#d2dae1"/><text x="70" y="463" font-size="23" fill="#17222e" font-weight="600" text-anchor="start">Interrupt input</text><rect x="805" y="428" width="345" height="57" rx="12" fill="#f7f9fb" stroke="#d2dae1"/><text x="825" y="463" font-size="23" fill="#17222e" font-weight="600" text-anchor="start">3 IRQ</text><text x="600" y="442" font-size="18" fill="#4d5d6a" font-weight="400" text-anchor="middle">Module interrupt</text><path d="M 410 465 L 790 465" fill="none" stroke="#007c83" stroke-width="4"/><path d="M 410 465 L 422 458 L 422 472 Z" fill="#007c83"/><rect x="50" y="503" width="345" height="57" rx="12" fill="#f7f9fb" stroke="#d2dae1"/><text x="70" y="538" font-size="23" fill="#17222e" font-weight="600" text-anchor="start">Enable output</text><rect x="805" y="503" width="345" height="57" rx="12" fill="#f7f9fb" stroke="#d2dae1"/><text x="825" y="538" font-size="23" fill="#17222e" font-weight="600" text-anchor="start">4 VEN</text><text x="600" y="517" font-size="18" fill="#4d5d6a" font-weight="400" text-anchor="middle">Enable / reset</text><path d="M 410 540 L 790 540" fill="none" stroke="#007c83" stroke-width="4"/><path d="M 790 540 L 778 533 L 778 547 Z" fill="#007c83"/><rect x="50" y="578" width="345" height="57" rx="12" fill="#f7f9fb" stroke="#d2dae1"/><text x="70" y="613" font-size="23" fill="#17222e" font-weight="600" text-anchor="start">3.3-5.5 V supply</text><rect x="805" y="578" width="345" height="57" rx="12" fill="#f7f9fb" stroke="#d2dae1"/><text x="825" y="613" font-size="23" fill="#17222e" font-weight="600" text-anchor="start">5 VCC</text><text x="600" y="592" font-size="18" fill="#4d5d6a" font-weight="400" text-anchor="middle">See supply preset</text><path d="M 410 615 L 790 615" fill="none" stroke="#b82736" stroke-width="4"/><path d="M 790 615 L 778 608 L 778 622 Z" fill="#b82736"/><rect x="50" y="653" width="345" height="57" rx="12" fill="#f7f9fb" stroke="#d2dae1"/><text x="70" y="688" font-size="23" fill="#17222e" font-weight="600" text-anchor="start">GND</text><rect x="805" y="653" width="345" height="57" rx="12" fill="#f7f9fb" stroke="#d2dae1"/><text x="825" y="688" font-size="23" fill="#17222e" font-weight="600" text-anchor="start">6 GND</text><text x="600" y="667" font-size="18" fill="#4d5d6a" font-weight="400" text-anchor="middle">Reference</text><path d="M 410 690 L 790 690" fill="none" stroke="#4d5d6a" stroke-width="4"/><path d="M 50 773 L 1150 773" fill="none" stroke="#d2dae1" stroke-width="2"/><text x="50" y="807" font-size="18" fill="#4d5d6a" font-weight="400" text-anchor="start">ELECHOUSE PN7160 MINI V1 I2C only. Identify contact 1 using the manufacturer drawing, not cable colors.</text><text x="50" y="841" font-size="17" fill="#4d5d6a" font-weight="400" text-anchor="start">Original Black Wire connection diagram. Documentation reviewed; not independently bench-tested.</text><text x="50" y="888" font-size="16" fill="#b82736" font-weight="600" text-anchor="start">Kal / Valleytech Solutions  |  CC BY 4.0  |  pn7160-mini-i2c  |  2026-09-27</text><text x="50" y="915" font-size="15" fill="#4d5d6a" font-weight="400" text-anchor="start">Sources: valleytech-black-wire-guide.pages.dev/wiki/wiring/pn7160-mini-i2c/</text></g></svg>
